<?xml version="1.0" encoding="utf-8"?>
<!-- Generator: Adobe Illustrator 27.5.0, SVG Export Plug-In . SVG Version: 6.00 Build 0)  -->
<svg version="1.1" id="_x3C_Layer_x3E_" xmlns="http://www.w3.org/2000/svg" xmlns:xlink="http://www.w3.org/1999/xlink" x="0px"
	 y="0px" viewBox="0 0 2760 1840" style="enable-background:new 0 0 2760 1840;" xml:space="preserve">
<rect style="fill:#FFFFFF;" width="2760" height="1840"/>
<g>
	<path style="fill:#EBF3FA;" d="M355.379,1667.687c0,0-304.46-285.856-110.765-622.177
		C438.309,709.19,698.458,878.324,685.868,486.879c-12.59-391.446,598.288-425.077,792.735-311.574
		c194.447,113.503,193.278,250.205,594.693,204.975c401.414-45.229,478.099,331.807,373.667,523.962
		c-148.171,272.639,411.237,227.672,58.748,763.444H355.379z"/>
	<g style="opacity:0.5;">
		<path style="fill:#759BE0;" d="M1514.514,931.648l-58.03,689.998c0,0-6.08,41.827,25.031,41.9c51.154,0.122,254.61,0,254.61,0
			s-38.5-8.707-38.033-28.296c0.55-23.092,67.825-710.133,67.825-710.133L1514.514,931.648z"/>
		<path style="fill:#AEC3FF;" d="M1752.633,1651.028c-10.062,0.029-204.387,0.639-254.202,0
			c-21.711-0.271-25.517-19.304-25.697-31.622c-0.09-5.905,0.659-10.271,0.659-10.271l1.51-17.934l3.846-45.709l3.397-40.384
			l4.366-51.894l3.676-43.801l41.233-490.291l251.405-6.524c0,0-28.335,287.523-48.377,496.815
			c-2.238,23.318-4.366,45.68-6.334,66.55c-0.64,6.665-1.249,13.179-1.849,19.523c-1.858,19.802-3.557,37.985-5.035,54.042
			c-0.779,8.462-1.499,16.325-2.148,23.527c-2.558,28.226-4.057,46.249-4.076,49.676c-0.01,1.998,0.16,3.857,0.489,5.586
			C1719.623,1650.309,1748.856,1651.028,1752.633,1651.028z"/>
		<polygon style="fill:#AEC3FF;" points="903.967,556.176 1045.317,1123.96 1064.672,1201.72 1130.507,1466.177 2353.617,1466.177 
			2110.96,556.176 		"/>
		<polygon style="fill:#759BE0;" points="903.964,556.176 884.373,562.706 1104.464,1485.931 1130.51,1466.18 		"/>
		<polygon style="fill:#759BE0;" points="1104.464,1485.931 2320.045,1485.931 2353.612,1466.18 1130.51,1466.18 		"/>
		
			<rect x="1531.34" y="1651.304" transform="matrix(-1 -1.224647e-16 1.224647e-16 -1 3325.8711 3315.1143)" style="fill:#AEC3FF;" width="263.191" height="12.507"/>
		<polygon style="opacity:0.7;fill:#759BE0;" points="1727.625,1485.926 1726.267,1495.487 1478.748,1545.492 1482.146,1505.108 
			1483.764,1485.926 		"/>
		<path style="fill:#94B0ED;" d="M1752.633,1651.028c-10.062,0.029-204.387,0.639-254.202,0
			c-21.711-0.271-25.517-19.304-25.697-31.622l246.35-46.35c-2.558,28.226-4.057,46.249-4.076,49.676
			c-0.01,1.998,0.16,3.857,0.489,5.586C1719.623,1650.309,1748.856,1651.028,1752.633,1651.028z"/>
		<polygon style="fill:#94B0ED;" points="1667.801,1281.959 1130.51,1466.18 1064.672,1201.72 		"/>
		<polygon style="fill:#D2E0FF;" points="903.964,556.176 2110.959,556.176 2305.313,1287.53 1086.104,1287.53 		"/>
		<polygon style="fill:#94B0ED;" points="2305.983,1287.527 2295.875,1287.527 2213.135,971.82 2106.778,565.977 918.981,565.977 
			1098.908,1287.527 1086.064,1287.659 903.969,556.181 2115.141,555.132 2116.2,559.169 2222.521,967.194 		"/>
		<polygon style="fill:#AEC3FF;" points="2307.818,1294.569 2298.063,1295.877 2213.135,971.82 2222.521,967.194 		"/>
	</g>
	<g>
		<path style="fill:#163560;" d="M605.658,1000.922c-2.009-6.058,27.442,7.896,62.538-3.865
			c30.247-10.137,2.974-29.887,10.681-54.935c5.49-17.834,3.754-65.754-42.999-67.675c0,0-11.239-6.805-27.477-1.413
			C571.471,885.297,494.668,1009.668,605.658,1000.922z"/>
		<path style="fill:#F78248;" d="M656.891,1106.105c0,0,4.442,8.798,12.499,18.904c9.712,12.164,60.687-16.708,56.295-18.904
			c-4.392-2.194-30.007-75.986-36.104-85.26c-6.103-9.271-26.888-14.087-26.888-14.087L656.891,1106.105z"/>
		<path style="fill:#1F447F;" d="M484.876,1603.801c0,0-14.069,12.84-11.324,21.961c2.746,9.123,15.441,15.206,17.157,26.355
			c1.716,11.149,8.578,17.231,14.756,17.231c6.176,0,29.446,0,29.446,0s4.547-7.846-6.434-10.211
			c-10.981-2.365-15.121-15.468-14.434-27.631c0.686-12.164-1.029-28.382-1.029-28.382l-23.335-5.406L484.876,1603.801z"/>
		<path style="fill:#1C3154;" d="M603.953,1609.252c0,0-5.06,54.391,1.116,57.433l79.045-0.163c0,0,0-9.123-12.695-11.149
			c-12.697-2.028-35.002-9.461-38.775-26.017C628.868,1612.8,603.953,1609.252,603.953,1609.252z"/>
		<path style="fill:#F78248;" d="M543.147,1069.419c0,0-1.178,16.607,0,36.536c0.783,13.21,14.146,30.903,16.042,35.279
			c4.756,10.979,10.121,12.764,10.121,12.764l41.503,10.173l14.593,3.571l46.018-13.744c0,0,20.96-58.504,12.544-91.437
			c-8.416-32.934-21.275-55.803-21.275-55.803s-31.272-7.031-86.444-3.118L543.147,1069.419z"/>
		<path style="fill:#DD6C3A;" d="M539.193,1106.417c0.784,13.21,18.101,30.441,19.996,34.817
			c4.756,10.979,10.121,12.764,10.121,12.764l41.503,10.173l7.493-21.477c0,0-60.641-15.93-50.886-72.057L539.193,1106.417z"/>
		<path style="fill:#233862;" d="M668.499,1162.879c0,0,22.788,70.935,24.252,95.086c1.464,24.151-43.563,343.086-45.375,354.214
			c-1.707,10.49-14.732,17.177-14.732,17.177s-5.991,3.534-14.541,1.12c-11.863-3.351-15.612-7.361-15.612-7.361
			s-17.738-227.462-6.762-308.716c10.978-81.254,11.107-151.52,11.107-151.52H668.499z"/>
		<path style="fill:#2A4E96;" d="M571.943,1160.764c0,0-34.762,46.643-38.004,78.173c-3.239,31.53-5.083,142.282-11.988,173.021
			c-6.904,30.738-32.272,89.89-32.272,185.762c0,0,2.638,5.494,10.779,8.423c2.604,0.936,6.092,1.843,9.478,2.62
			c6.715,1.539,13.603-1.742,16.668-7.911c17.149-34.53,71.78-145.901,74.581-169.02c1.983-16.36,19.232-124.639,56.858-188.175
			c9.032-15.253-5.544-75.914-5.544-75.914L571.943,1160.764z"/>
		<path style="fill:#233862;" d="M672.139,1151.928c0,0-9.149,7.237-27.324,7.604c-21.709,0.437-75.502-5.534-75.502-5.534
			s-2.391,6.677-2.292,13.729c0,0,65.698,16.572,103.766,2.42C670.786,1170.146,675.695,1160.909,672.139,1151.928z"/>
		<g>
			<path style="fill:#FFFFFF;" d="M640.117,1167.028c0-6.184,4.443-11.213,9.906-11.213c5.462,0,9.906,5.029,9.906,11.213
				c0,6.182-4.444,11.21-9.906,11.21C644.56,1178.238,640.117,1173.21,640.117,1167.028z M643.4,1167.028
				c0,4.371,2.972,7.928,6.623,7.928c3.651,0,6.623-3.557,6.623-7.928c0-4.373-2.972-7.929-6.623-7.929
				C646.372,1159.1,643.4,1162.655,643.4,1167.028z"/>
		</g>
		<polygon style="fill:#6980E2;" points="602.56,1198.633 701.305,1199.557 749.896,1085.364 651.15,1084.441 		"/>
		<path style="fill:#FFB27D;" d="M615.473,1147.03l7.238-8.895c0,0,4.898-4.37,8.453-5.111c3.555-0.743,11.061-5.072,11.788-3.852
			c0.728,1.22-5.767,9.92-5.767,9.92l-0.33,0.048c7.455,5.606,26.277,0.656,28.601,2.944c2.816,2.773-3.875,8.766-7.467,12.132
			c-3.59,3.365-13.857,8.976-21.861,6.484c-5.851-1.821-15.06-3.675-15.06-3.675L615.473,1147.03z"/>
		<path style="fill:#FFB27D;" d="M742.469,1105.452c0,0-6.206-7.052-10.155-3.667c-3.948,3.385,1.034,20.027,4.795,18.335
			C740.869,1118.427,744.631,1107.521,742.469,1105.452z"/>
		<path style="fill:#F78248;" d="M576.249,1003.641c0,0-28.27,3.118-48.556,39.977c-15.996,29.065-43.344,82.648-33.025,97.784
			c4.531,6.646,47.956,30.289,131.715,16.774c0,0-1.318-10.579-8.076-15.481c0,0-70.487-22.632-70.367-27.134
			c0.229-8.516,9.526-15.874,48.899-55.26C607.543,1049.593,576.249,1003.641,576.249,1003.641z"/>
		<path style="fill:#FFB27D;" d="M598.003,1005.134c-0.971-1.303,0.278-5.455,1.832-13.188c1.405-7.006,3.791-17.842,3.741-30.031
			l2.082,0.349l35.035,5.895c0,0-0.797,9.367-0.82,18.191c0,0.073,0,0.148,0,0.22c-0.044,7.665,2.067,19.247-0.517,20.761
			C626.08,1015.107,601.738,1010.151,598.003,1005.134z"/>
		<path style="fill:#E8945B;" d="M640.693,968.157c0,0-0.697,13.208-0.72,22.032c-19.605-0.469-30.068-19.505-34.315-27.927
			L640.693,968.157z"/>
		<path style="fill:#FFB27D;" d="M642.809,983.91c0,0-45.928-6.541-41.414-35.08c4.514-28.539,1.626-48.604,31.142-45.635
			c29.515,2.971,33.476,14.76,34.286,24.651C667.633,937.738,654.873,984.876,642.809,983.91z"/>
		<path style="fill:#163560;" d="M653.511,905.82c0,0-17.875,31.479-37.912,33.361c-20.036,1.883-27.564-4.603-27.564-4.603
			s16.633-9.377,22.959-29.363C610.993,905.215,646.588,888.381,653.511,905.82z"/>
		<path style="fill:#163560;" d="M649.969,908.043c0,0,8.747,4.958,11.494,12.351c2.686,7.229,4.477,16.523,2.018,27.183
			c0,0,13.074-21.248,4.506-35.812C658.901,896.322,649.969,908.043,649.969,908.043z"/>
	</g>
	<path style="fill:#D5DFFC;" d="M248.032,1319.478l24.949-2.812c2.079-0.213,4.101,0.756,5.238,2.508
		c1.443,2.242,2.991,4.438,4.642,6.59c3.068,3.999,6.353,7.694,9.88,11.03c1.649,1.566,2.197,3.943,1.354,6.04l-9.568,24.434
		c-1.045,2.598,0.105,5.582,2.656,6.836l21.497,10.646c2.44,1.2,5.363,0.374,6.833-1.894l12.998-20.367
		c1.222-2.008,3.65-2.938,5.991-2.317c9.875,2.609,20.154,3.631,30.433,3.031c2.48-0.144,4.788,1.471,5.532,3.834l4.405,14.023
		c0.862,2.653,3.576,4.3,6.342,3.766l23.346-4.722c0.48-0.093,0.929-0.229,1.349-0.447c2.022-0.965,3.269-3.165,2.986-5.468
		l-2.078-18.641l-0.516-4.541c3.883-2.186,7.69-4.693,11.32-7.479c4.89-3.752,9.343-7.894,13.284-12.298
		c1.51-1.677,3.876-2.283,5.973-1.44l19.674,7.729c2.695,1.038,5.74-0.124,6.999-2.713l8.143-16.434l2.32-4.716
		c1.276-2.567,0.42-5.708-1.997-7.238l-17.012-10.876c-1.986-1.238-2.965-3.596-2.397-5.826c1.586-6.707,2.47-13.566,2.593-20.428
		c0.059-0.598,0.053-1.146,0.052-1.731c-0.014-0.197,0.013-0.39,0.037-0.581c0.212-2.199,1.742-4.03,3.861-4.688l22.753-7.203
		c0.262-0.063,0.513-0.187,0.742-0.293c2.213-1.076,3.479-3.566,3.002-6.033l-4.672-23.279c-0.567-2.81-3.17-4.716-6.043-4.41
		l-26.021,2.943c-2.205,0.275-4.321-0.863-5.373-2.818c-2.349-4.275-5.063-8.443-8.147-12.464c-1.635-2.13-3.339-4.171-5.113-6.124
		c-1.432-1.596-1.856-3.859-1.067-5.846l9.19-23.486c1.023-2.581-0.11-5.544-2.623-6.794l-21.281-10.5
		c-2.567-1.275-5.687-0.437-7.26,2.014l-10.289,16.112c-1.379,2.163-4.021,3.085-6.435,2.279
		c-9.455-3.277-19.365-5.031-29.355-5.273c-2.362-0.018-4.461-1.584-5.177-3.866l-6.482-20.509
		c-0.869-2.752-3.681-4.393-6.508-3.847l-23.198,4.644c-2.788,0.551-4.677,3.174-4.34,5.953l0.11,1.09l2.424,21.654
		c0.261,2.32-0.926,4.51-3.002,5.584l-0.022,0.018c-4.969,2.569-9.785,5.607-14.392,9.143c-2.456,1.885-4.769,3.866-7.014,5.935
		c-1.54,1.458-3.765,1.888-5.735,1.12l-19.971-7.847c-2.729-1.082-5.839,0.13-7.12,2.735l-10.469,21.188
		c-0.294,0.606-0.457,1.248-0.539,1.863c-0.208,2.024,0.73,4.101,2.513,5.255l13.612,8.65c1.656,1.078,2.618,2.963,2.541,4.887
		c-0.027,0.504-0.115,1.02-0.279,1.525c-4.141,12.155-5.791,24.989-4.9,37.807c0.183,2.174-1.022,4.203-2.913,5.205
		c-0.272,0.139-0.562,0.258-0.867,0.354l-18.429,5.819c-2.67,0.84-4.278,3.559-3.744,6.325l0.104,0.541l4.534,22.695
		C242.497,1317.889,245.136,1319.799,248.032,1319.478z M407.649,1248.629c1.426,3.567,2.58,7.413,3.387,11.524
		c1.526,7.841-0.063,20.214-3.606,27.387c-0.375,0.771-0.767,1.521-1.159,2.27c-24.412,45.318-88.404,36.305-98.942-14.827
		c-1.366-6.687-0.514-16.422,1.875-23.883c0.578-1.722,1.201-3.339,1.91-4.712c3.26-6.506,7.299-11.952,11.908-16.388
		C349.302,1204.76,393.211,1213.023,407.649,1248.629z"/>
	<path style="fill:#D5DFFC;" d="M813.148,428.435l20.999-2.366c1.75-0.181,3.452,0.636,4.409,2.11
		c1.215,1.887,2.518,3.735,3.906,5.547c2.583,3.365,5.348,6.476,8.316,9.284c1.389,1.318,1.849,3.318,1.139,5.084l-8.053,20.564
		c-0.879,2.186,0.088,4.699,2.235,5.755l18.094,8.961c2.054,1.01,4.514,0.315,5.752-1.595l10.94-17.143
		c1.028-1.689,3.071-2.474,5.043-1.95c8.31,2.195,16.962,3.057,25.614,2.551c2.088-0.12,4.03,1.237,4.655,3.228l3.709,11.802
		c0.726,2.233,3.01,3.621,5.338,3.17l19.648-3.973c0.405-0.079,0.783-0.193,1.135-0.378c1.703-0.811,2.752-2.662,2.514-4.602
		l-1.748-15.69l-0.434-3.822c3.268-1.84,6.473-3.95,9.527-6.294c4.116-3.158,7.864-6.644,11.182-10.352
		c1.271-1.411,3.262-1.922,5.026-1.213l16.56,6.506c2.268,0.875,4.832-0.103,5.891-2.282l6.855-13.833l1.954-3.969
		c1.073-2.161,0.352-4.805-1.682-6.092l-14.318-9.154c-1.672-1.042-2.495-3.026-2.019-4.904c1.336-5.645,2.079-11.418,2.183-17.194
		c0.049-0.503,0.045-0.964,0.043-1.458c-0.011-0.166,0.011-0.328,0.032-0.489c0.178-1.851,1.466-3.392,3.249-3.946l19.15-6.063
		c0.222-0.053,0.433-0.157,0.626-0.247c1.861-0.906,2.927-3.002,2.526-5.078l-3.932-19.594c-0.478-2.365-2.668-3.969-5.086-3.712
		l-21.902,2.477c-1.856,0.232-3.638-0.726-4.522-2.372c-1.978-3.598-4.262-7.106-6.857-10.49c-1.376-1.792-2.811-3.511-4.305-5.155
		c-1.204-1.343-1.562-3.248-0.899-4.92l7.734-19.769c0.861-2.172-0.093-4.666-2.207-5.718l-17.912-8.838
		c-2.161-1.074-4.786-0.367-6.111,1.695l-8.659,13.561c-1.16,1.821-3.385,2.597-5.417,1.918c-7.957-2.758-16.298-4.235-24.707-4.438
		c-1.988-0.015-3.756-1.333-4.357-3.254l-5.455-17.262c-0.731-2.317-3.099-3.697-5.478-3.238l-19.525,3.908
		c-2.347,0.464-3.936,2.672-3.652,5.011l0.093,0.917l2.04,18.227c0.221,1.953-0.778,3.795-2.527,4.7l-0.018,0.014
		c-4.182,2.163-8.235,4.721-12.113,7.696c-2.067,1.586-4.014,3.254-5.904,4.995c-1.296,1.227-3.169,1.589-4.828,0.943l-16.808-6.604
		c-2.298-0.911-4.915,0.109-5.993,2.302l-8.812,17.834c-0.248,0.51-0.385,1.05-0.453,1.568c-0.176,1.704,0.614,3.452,2.114,4.423
		l11.457,7.281c1.394,0.907,2.204,2.494,2.14,4.113c-0.023,0.425-0.098,0.859-0.235,1.285c-3.484,10.23-4.875,21.032-4.125,31.82
		c0.153,1.829-0.86,3.538-2.452,4.381c-0.228,0.117-0.473,0.217-0.729,0.298l-15.512,4.897c-2.247,0.707-3.601,2.996-3.15,5.324
		l0.088,0.456l3.815,19.102C808.489,427.097,810.711,428.705,813.148,428.435z M947.496,368.802c1.2,3.003,2.171,6.239,2.851,9.7
		c1.285,6.599-0.054,17.013-3.036,23.051c-0.315,0.649-0.644,1.28-0.975,1.91c-20.548,38.144-74.409,30.558-83.279-12.479
		c-1.149-5.628-0.433-13.822,1.579-20.102c0.487-1.449,1.011-2.81,1.607-3.965c2.743-5.477,6.143-10.061,10.022-13.794
		C898.387,331.878,935.344,338.834,947.496,368.802z"/>
	<g>
		<path style="fill:#8C9DF4;" d="M2099.297,660.828v675.606c0,24.694-18.926,44.716-42.27,44.716H861.783
			c-23.344,0-42.27-20.021-42.27-44.716V660.828c0-24.695,18.926-44.717,42.27-44.717h1195.244
			C2080.371,616.111,2099.297,636.133,2099.297,660.828z"/>
		<path style="fill:#6980E2;" d="M2099.297,658.381v30.963H819.514v-30.963c0-23.344,18.926-42.27,42.27-42.27h1195.244
			C2080.371,616.111,2099.297,635.037,2099.297,658.381z"/>
		<g>
			<path style="fill:#C0D4FF;" d="M1322.247,1026.265c19.977,25.584-3.938,64.95,9.845,94.223
				c2.635,5.597,6.575,10.571,8.771,16.348c3.63,9.551,2.134,20.236,4.383,30.188c2.248,9.952,11.28,20.193,21.284,17.53
				c8.663-2.305,12.146-12.716,11.904-21.538c-0.24-8.822-2.729-17.862-0.149-26.317c3.132-10.27,13.658-17.383,24.515-18.351
				c10.855-0.967,21.708,3.484,30.067,10.364c9.174,7.549,19.209,18.896,30.454,14.892c10.775-3.839,11.655-19.145,6.381-29.152
				s-14.47-17.86-18.386-28.454c-4.927-13.323-0.397-28.494,7.603-40.286c7.999-11.791,19.145-21.104,29.197-31.263
				c3.44-3.475,6.928-7.4,7.519-12.216c0.589-4.814-3.256-10.376-8.143-9.734c-3.293,0.436-5.586,3.292-8.126,5.4
				c-10.998,9.122-29.224,3.775-37.581-7.744c-8.358-11.517-9.063-26.753-7.625-40.832c17.19,4.014,32.772-19.69,49.369-13.726
				c10.399,3.737,13.259,16.477,16.024,27.023c4.921,18.768,14.298,36.432,16.739,55.665c4.656,36.669-15.901,76.948,2.432,109.204
				c6.877,12.1,18.435,20.989,30.66,27.886c29.152,16.445,66.308,22.84,96.456,8.234c34.773-16.847,67.753-56.296,68.026-58.663
				c3.418-29.47-1.002-47.369,4.315-56.499c20.022-34.373,79.673-8.974,108.437-7.256c79.402,4.744,74.832-46.524,74.572-70.248
				c-0.63-57.315-11.752-67.806-69.536-74.958c-30.256-3.743-61.437,2.363-91.208-4.124c-26.072-5.684-48.989-20.573-73.905-30.024
				c-45.784-17.367-98.775-15.413-143.11,5.273c-9.57,4.468-18.956,9.828-29.403,11.549c-10.449,1.72-22.573-1.184-28.156-10.039
				c-6.638-10.529-1.541-24.429,5.596-34.638c7.138-10.209,16.474-19.673,18.846-31.84c3.293-16.894-8.922-34.132-24.99-40.918
				c-16.069-6.787-34.729-4.845-51.262,0.76c-30.213,10.243-55.09,31.627-77.492,54.043c-26.547,26.562-51.964,57.786-55.683,94.854
				c-1.463,14.588,0.559,29.677-4.545,43.741c-3.814,10.516-13.196,18.415-9.534,30.103
				C1273.824,1007.118,1308.75,1008.981,1322.247,1026.265z"/>
			<path style="fill:#C0D4FF;" d="M1787.756,845.78c5.247,4.089,10.494,8.178,15.74,12.266c3.615,2.817,7.347,5.692,11.303,6.418
				c8.328,1.527,15.973-8.526,15.539-20.44c-0.431-11.912-8.847-23.103-17.106-22.748c-5.107,0.22-10.261,4.087-15.057,0.714
				c-10.021-7.048-16.804-41.199-25.581-18.119C1766.079,821.001,1777.2,837.84,1787.756,845.78z"/>
			<path style="fill:#C0D4FF;" d="M1168.567,893.974c10.998,6.985,21.998,13.969,32.997,20.952
				c6.103,3.876,13.085,10.102,10.539,16.793c-3.172,8.338-15.511,5.787-24.479,6.979c-12.307,1.636-21.564,14.981-18.629,26.849
				c2.18,8.811,9.411,19.149,2.821,25.49c-5.962,5.736-16.466,0.35-24.132,3.579c-4.542,1.913-7.398,6.609-11.947,8.505
				c-3.892,1.623-8.55,0.983-12.239,3.01c-4.586,2.519-6.191,8.256-10.015,11.797c-11.596,10.743-32.44-4.83-46.012,3.375
				c-10.35,6.257-8.613,22.488-0.53,31.407c8.083,8.92,20.058,13.189,30.321,19.581c10.263,6.393,19.744,17.238,17.513,28.984
				c-2.309,12.152-16.549,22.742-11.452,34.044c1.569,3.481,4.738,5.959,7.227,8.877c6.428,7.54,8.175,18.443,5.21,27.843
				c-2.963,9.398-10.304,17.195-19.241,21.617c-5.68,2.811-11.94,4.339-17.628,7.135c-15.415,7.574-24.658,23.26-32.826,38.184
				c-10.152,18.544-20.157,37.656-23.539,58.453c-1.12,6.887-2.192,14.986-8.383,18.385c-7.267,3.989-16.591-1.877-20.106-9.297
				c-3.515-7.419-3.39-15.954-5.38-23.9c-3.748-14.965-14.845-27.339-18.731-42.271c-9.297-35.707,24.813-71.181,18.318-107.483
				c-1.356-7.577-4.46-14.782-5.647-22.387c-2.358-15.083,3.504-31.171,15.066-41.349c12.45-10.957,31.669-16.544,36.659-32.227
				c5.507-17.303-10.505-35.145-7.707-53.064c0.896-5.736,3.694-11.066,4.505-16.814c0.933-6.615-0.823-13.289-2.727-19.7
				c-5.351-18.029-11.83-38.18-2.852-54.758c5.428-10.019,15.631-16.639,26.008-21.607c24.138-11.556,51.063-16.025,77.746-13.879
				c11.175,0.898,21.539-2.242,23.047,10.199C1153.975,880.734,1155.989,885.988,1168.567,893.974z"/>
			<path style="fill:#C0D4FF;" d="M1246.425,801.124c5.906-4.131,12.999-6.266,19.317-9.76c6.317-3.494,12.233-9.106,12.789-16.215
				c0.434-5.546-2.577-10.935-6.761-14.678c-4.183-3.743-9.437-6.093-14.665-8.21c-10.267-4.156-20.811-7.648-31.541-10.447
				c-5.932-1.547-12.298-2.869-18.11-0.935c-5.16,1.719-9.124,5.762-12.716,9.792c-4.987,5.595-9.796,11.653-11.85,18.814
				c-2.941,10.264,0.189,21.248,4.431,31.063c3.494,8.088,25.169,51.127,36.311,46.314c4.366-1.886,5.968-20.524,7.736-24.988
				C1234.564,813.799,1239.119,806.234,1246.425,801.124z"/>
			<path style="fill:#C0D4FF;" d="M1879.605,1196.724c9.188-6.427,20.221-9.747,30.049-15.183
				c9.829-5.436,19.03-14.166,19.896-25.225c0.675-8.626-4.01-17.01-10.516-22.832c-6.507-5.823-14.681-9.478-22.814-12.771
				c-15.97-6.465-32.372-11.898-49.066-16.252c-9.226-2.406-19.129-4.464-28.171-1.453c-8.027,2.673-14.193,8.963-19.78,15.231
				c-7.758,8.704-15.238,18.128-18.434,29.27c-4.577,15.964,0.294,33.052,6.892,48.319c5.436,12.581,39.152,79.533,56.484,72.047
				c6.793-2.934,9.285-31.928,12.035-38.872C1861.154,1216.44,1868.241,1204.673,1879.605,1196.724z"/>
		</g>
		<g>
			<path style="fill:#EBF3FA;" d="M869.6,656.731c0-4.639,3.762-8.4,8.401-8.4c4.64,0,8.4,3.762,8.4,8.4c0,4.64-3.761,8.4-8.4,8.4
				C873.361,665.131,869.6,661.37,869.6,656.731z"/>
			<circle style="fill:#EBF3FA;" cx="923.155" cy="656.731" r="8.4"/>
			<circle style="fill:#EBF3FA;" cx="968.31" cy="656.731" r="8.4"/>
		</g>
		<g>
			<g>
				<path style="fill:#F78248;" d="M1251.525,867.188c0,28.944,48.74,75.211,48.74,75.211s48.74-46.267,48.74-75.211
					s-21.821-52.414-48.74-52.414C1273.346,814.773,1251.525,838.243,1251.525,867.188z M1271.546,864.113
					c0-15.823,12.898-28.719,28.72-28.719c15.896,0,28.72,12.896,28.72,28.719c0,15.897-12.823,28.72-28.72,28.72
					C1284.444,892.833,1271.546,880.01,1271.546,864.113z"/>
			</g>
			<path style="fill:#EBF3FA;" d="M1271.546,864.113c0-15.861,12.858-28.719,28.72-28.719s28.72,12.858,28.72,28.719
				c0,15.861-12.858,28.72-28.72,28.72S1271.546,879.975,1271.546,864.113z"/>
		</g>
		<g>
			<g>
				<path style="fill:#F78248;" d="M1006.648,1138.213c0,20.623,34.727,53.589,34.727,53.589s34.729-32.966,34.729-53.589
					c0-20.624-15.548-37.348-34.729-37.348C1022.194,1100.865,1006.648,1117.589,1006.648,1138.213z M1020.912,1136.022
					c0-11.274,9.19-20.464,20.463-20.464c11.328,0,20.464,9.189,20.464,20.464c0,11.326-9.136,20.463-20.464,20.463
					C1030.103,1156.485,1020.912,1147.349,1020.912,1136.022z"/>
			</g>
			<path style="fill:#EBF3FA;" d="M1020.912,1136.022c0-11.302,9.162-20.464,20.463-20.464c11.303,0,20.464,9.162,20.464,20.464
				c0,11.301-9.161,20.463-20.464,20.463C1030.074,1156.485,1020.912,1147.323,1020.912,1136.022z"/>
		</g>
	</g>
	<g>
		<path style="fill:#D5DFFC;" d="M967.451,1043.736H750.067c-17.169,0-31.217-14.048-31.217-31.217V788.12
			c0-17.169,14.048-31.217,31.217-31.217h217.384c17.169,0,31.216,14.048,31.216,31.217v224.399
			C998.667,1029.688,984.62,1043.736,967.451,1043.736z"/>
		<g>
			<path style="fill:#2A4E96;" d="M943.258,890.995c0,46.675-37.825,84.499-84.499,84.499c-46.674,0-84.498-37.824-84.498-84.499
				c0-46.674,37.824-84.498,84.498-84.498c5.307,0,10.507,0.485,15.538,1.434c-10.548,38.436-24.546,89.341-25.483,92.516
				c1.739-2.743,53.128-25.779,88.221-41.306C941.053,868.972,943.258,879.731,943.258,890.995z"/>
			<path style="fill:#F78248;" d="M941.735,849.926c-30.99,13.655-82.324,36.538-83.968,39.129
				c0.891-3.019,15.09-54.636,24.603-89.232C908.709,807.05,930.359,825.608,941.735,849.926z"/>
		</g>
	</g>
	<g>
		<path style="fill:#D5DFFC;" d="M1395.348,656.731h-286.311c-21.145,0-38.442-17.299-38.442-38.442v-258.24
			c0-21.143,17.298-38.442,38.442-38.442h286.311c21.143,0,38.441,17.299,38.441,38.442v258.24
			C1433.789,639.432,1416.49,656.731,1395.348,656.731z"/>
		<g>
			<g>
				<path style="fill:#8C9DF4;" d="M1392.186,601.327H1111.16v-89.425h281.025V601.327z M1114.608,597.879h274.129v-82.528h-274.129
					V597.879z"/>
			</g>
			<g>
				<rect x="1131.522" y="535.934" style="fill:#8C9DF4;" width="108.705" height="7.086"/>
				<rect x="1251.673" y="535.934" style="fill:#8C9DF4;" width="77.133" height="7.086"/>
				<rect x="1131.522" y="556.175" style="fill:#8C9DF4;" width="59.992" height="7.086"/>
				<rect x="1201.661" y="556.175" style="fill:#8C9DF4;" width="77.133" height="7.086"/>
				<rect x="1286.781" y="556.175" style="fill:#8C9DF4;" width="77.133" height="7.086"/>
			</g>
		</g>
		<g>
			<rect x="1112.885" y="443.855" style="fill:#2A4E96;" width="29.309" height="40.749"/>
			<rect x="1163.09" y="416.845" style="fill:#2A4E96;" width="29.311" height="67.76"/>
			<rect x="1213.297" y="394.712" style="fill:#F78248;" width="29.309" height="89.892"/>
			<rect x="1263.502" y="412.672" style="fill:#2A4E96;" width="29.31" height="71.932"/>
			<rect x="1313.708" y="374.392" style="fill:#2A4E96;" width="29.31" height="110.212"/>
			<rect x="1363.914" y="354.728" style="fill:#F78248;" width="29.309" height="129.876"/>
		</g>
	</g>
	<g>
		<path style="fill:#2A4E96;" d="M2339.578,1068.384H1969.1c-20.766,0-37.758-16.991-37.758-37.759V842.858
			c0-20.767,16.992-37.758,37.758-37.758h370.479c20.767,0,37.758,16.991,37.758,37.758v187.767
			C2377.336,1051.393,2360.345,1068.384,2339.578,1068.384z"/>
		<g>
			<g>
				<path style="fill:#C0D4FF;" d="M2133.351,1021.865h-164.901v-52.473h164.901V1021.865z M1970.473,1019.842h160.854v-48.426
					h-160.854V1019.842z"/>
			</g>
			<g>
				<rect x="1980.396" y="983.492" style="fill:#C0D4FF;" width="63.787" height="4.158"/>
				<rect x="2050.899" y="983.492" style="fill:#C0D4FF;" width="45.261" height="4.158"/>
				<rect x="1980.396" y="995.371" style="fill:#C0D4FF;" width="35.203" height="4.158"/>
				<rect x="2021.554" y="995.371" style="fill:#C0D4FF;" width="45.26" height="4.158"/>
				<rect x="2071.5" y="995.371" style="fill:#C0D4FF;" width="45.261" height="4.158"/>
			</g>
		</g>
		<g>
			<g>
				<path style="fill:#C0D4FF;" d="M2329.983,1021.865h-164.901v-52.473h164.901V1021.865z M2167.105,1019.842h160.854v-48.426
					h-160.854V1019.842z"/>
			</g>
			<g>
				<rect x="2177.03" y="983.492" style="fill:#C0D4FF;" width="63.786" height="4.158"/>
				<rect x="2247.533" y="983.492" style="fill:#C0D4FF;" width="45.26" height="4.158"/>
				<rect x="2177.03" y="995.371" style="fill:#C0D4FF;" width="35.202" height="4.158"/>
				<rect x="2218.187" y="995.371" style="fill:#C0D4FF;" width="45.261" height="4.158"/>
				<rect x="2268.135" y="995.371" style="fill:#C0D4FF;" width="45.26" height="4.158"/>
			</g>
		</g>
		<g>
			<g>
				<g>
					<path style="fill:#C0D4FF;" d="M2340.23,948.578h-371.781V918.43h371.781V948.578z M1971.977,945.051h364.725v-23.094h-364.725
						V945.051z"/>
				</g>
				<rect x="1970.213" y="920.193" style="fill:#C0D4FF;" width="288.583" height="26.621"/>
			</g>
		</g>
		<g>
			<g>
				<g>
					<path style="fill:#C0D4FF;" d="M2340.23,888.635h-371.781v-30.149h371.781V888.635z M1971.977,885.106h364.725v-23.094
						h-364.725V885.106z"/>
				</g>
				<rect x="1968.449" y="858.485" style="fill:#F99746;" width="193.317" height="30.149"/>
			</g>
		</g>
	</g>
	<g>
		<g>
			<path style="fill:#FFB27D;" d="M1797.95,753.143c-1.687,1.934-1.902,4.095-1.067,6.402c0.001,0.011,0.007,0.023,0.017,0.032
				c1.545,4.269,6.647,9.035,12.575,13.794c0.758,0.613,1.432,1.168,2.018,1.684c0.155,0.135,0.309,0.27,0.453,0.406
				c0.119,0.105,0.234,0.214,0.35,0.315c5.527,5.096,3.447,6.263,13.377,16.602c11.323,11.781,19.119,11.993,21.337,10.921
				c1.876-0.916-1.937-7.164-6.16-14.187c-0.204-0.339-0.405-0.682-0.615-1.024c-0.563-0.934-1.121-1.881-1.68-2.82
				c-4.95-8.451-3.679-12.418-2.505-24.996c0.953-10.222,15.901-57.106,15.901-57.106l-21.698-3.738c0,0-6.535,37.333-13.735,43.083
				c-3.85,3.064-8.159,3.103-11.859,5.375c-0.262,0.158-0.518,0.319-0.769,0.486C1801.785,749.765,1799.643,751.203,1797.95,753.143
				z"/>
			<path style="fill:#233862;" d="M1797.95,753.143c-1.687,1.934-1.902,4.095-1.067,6.402c0.001,0.011,0.007,0.023,0.017,0.032
				c1.892,4.265,6.866,9.008,12.596,13.751c0.749,0.622,1.41,1.193,1.997,1.727c0.155,0.135,0.309,0.27,0.453,0.406
				c0.119,0.105,0.234,0.214,0.35,0.315c5.527,5.096,3.447,6.263,13.377,16.602c11.323,11.781,19.119,11.993,21.337,10.921
				c1.876-0.916-1.937-7.164-6.16-14.187c-2.204-0.808-12.443-4.967-20.183-14.872c-6.57-8.384-11.032-19.07-15.502-25.631
				c-0.492-0.092-0.784-0.146-1.275-0.237C1801.785,749.764,1799.643,751.203,1797.95,753.143z"/>
			<path style="fill:#FFB27D;" d="M1972.918,739.59c1.34,6.698,10.887,5.58,21.553,2.975c10.668-2.607,8.133,0.492,23.313-1.19
				c15.182-1.68,19.78-7.341,20.243-9.598c0.415-2.004-7.087-2.71-15.132-3.636c-1.012-0.114-2.028-0.239-3.045-0.364
				c-9.084-1.14-15.736-7.002-23.988-11.816c-7.814-4.559-19.479-23.138-19.479-23.138l-20.818,1.65c0,0,10.924,16.594,15.15,23.809
				c2.485,4.243,2.354,9.854,2.043,14.188C1972.597,734.823,1972.442,737.231,1972.918,739.59z"/>
			<path style="fill:#233862;" d="M1994.471,742.565c10.668-2.607,8.133,0.492,23.313-1.19c15.182-1.68,19.78-7.341,20.243-9.598
				c0.415-2.004-7.087-2.71-15.132-3.636l-0.075,0.154c0,0-9.104,6.455-21.741,6.758c-10.3,0.251-21.209-2.7-28.321-2.585
				c-0.16,2.354-0.314,4.762,0.161,7.121C1974.258,746.288,1983.805,745.17,1994.471,742.565z"/>
			<path style="fill:#DD6C3A;" d="M1893.133,606.467l-19.463,52.37l-25.409,68.381c0,0-6.896,0.666-13.499-1.233
				c-6.078-1.758-13.054-6.353-13.054-6.353s7.056-73.423,20.217-115.57c3.372-10.817,7.153-19.568,11.323-24.495
				C1873.652,555.453,1893.133,606.467,1893.133,606.467z"/>
			<path style="fill:#F78248;" d="M1873.345,523.295c-11.079-3.574-39.985-0.056-71.338,5.619
				c-8.663,1.567-17.394-2.389-21.959-9.916l0,0l-78.905-6.163c0,0-26.037,57.742-11.783,94.534
				c2.096,5.406,6.693,8.781,13.791,8.896c0.002,0.002-0.004-0.004,0,0c0,0,47.68,0.067,62.929,0.067
				c39.241,0,83.047-26.974,88.715-28.108c9.275-1.854,12.985,16.696,22.261,36.174c9.276,19.478,87.19,86.263,87.19,86.263
				s11.974,0.119,16.921-1.736c5.32-1.995,7.267-4.587,7.267-4.587S1902.099,532.57,1873.345,523.295z"/>
			<path style="fill:#152949;" d="M1771.665,287.291c-5.858-3.488-11.57-4.021-15.072-3.921c-2.435,0.069-4.866-0.088-7.276-0.442
				c-30.115-4.415-48.251,39.327-49.313,52.544c-1.95,24.266-14.787,27.965-32.856,43.162c-36.229,30.472-25.605,65.88-5.795,79.037
				c11.887,7.894,32.838-0.001,32.838-0.001c0.296,0.207,57.297-31.865,85.396-47.336
				C1821.708,404.346,1788.588,297.366,1771.665,287.291z"/>
			<path style="fill:#FFB27D;" d="M1756.034,397.165c0.124,0.08-13.825,4.842-23.151,0.711
				c-8.775-3.878-15.422-18.313-15.291-18.321c3.991-0.184,8.373-3.674,11.748-26.571l1.699,0.61l28.577,10.282
				c0,0-2.07,9.169-3.41,17.9C1755.079,389.106,1754.474,396.128,1756.034,397.165z"/>
			<path style="fill:#ED975D;" d="M1759.616,363.876c0,0-1.141,4.948-2.805,14.19c-16.414-2.955-23.461-15.598-25.772-24.472
				L1759.616,363.876z"/>
			<path style="fill:#FFB27D;" d="M1763.872,372.978c0,0-39.099-5.248-35.456-29.546c3.643-24.298,1.05-41.34,26.168-39.017
				c25.117,2.323,28.566,12.321,29.323,20.727C1784.663,333.547,1774.137,373.717,1763.872,372.978z"/>
			<path style="fill:#152949;" d="M1782.482,311.822c0,0-25.029,21.569-42.055,23.308c-17.023,1.739-23.47-3.726-23.47-3.726
				s10.035-8.331,16.073-21.776c1.779-3.961,5.542-6.684,9.869-7.058C1755.058,301.521,1778.103,301.042,1782.482,311.822z"/>
			<path style="fill:#152949;" d="M1766.837,309.891c0,0,8.372,8.096,11.009,14.101c2.546,5.794,3.309,19.654,1.281,25.159
				c0,0,13.047-25.367,5.66-37.692C1776.956,298.389,1766.837,309.891,1766.837,309.891z"/>
			<path style="fill:#8C9DF4;" d="M1788.957,454.761c-1.183,79.145-0.324,62.608-8.981,70.117c-2.086,1.808-7.951,2.886-15.67,3.396
				c-24.269,1.609-66.929-2.389-68.552-6.873c-5.598-15.519-1.646-20.34-6.316-44.1c-0.486-2.526-1.089-5.261-1.796-8.24
				c-3.895-16.317-7.685-21.869,6.131-48.084c12.527-23.747,25.543-43.021,26.714-42.325c33.054,19.622,35.719,3.129,35.719,3.129
				S1789.537,416.156,1788.957,454.761z"/>
			<path style="fill:#F78248;" d="M1873.67,658.837l-25.409,68.381c0,0-6.896,0.666-13.499-1.233
				c-6.078-1.758-13.054-6.353-13.054-6.353s7.056-73.423,20.217-115.57L1873.67,658.837z"/>
			<path style="fill:#8C9DF4;" d="M1756.206,381.776c0,0,34.012,5.767,38.005,20.41c3.994,14.643,17.141,103.526,17.141,103.526
				s-9.59,9.365-17.577,1.378c-7.988-7.987-25.138-83.161-25.138-83.161L1756.206,381.776z"/>
			<path style="fill:#707FE5;" d="M1764.306,528.274c-24.269,1.609-66.929-2.389-68.552-6.873c-5.598-15.519-1.646-20.34-6.316-44.1
				l11.705-32.96c0,0-1.935,36.704,8.89,46.357c10.813,9.655,44.318,18.637,49.58,26.704
				C1762.15,521.273,1763.819,525.156,1764.306,528.274z"/>
			<path style="fill:#FFB27D;" d="M1736.5,512.835c0,0,23.942-5.33,27.806-3.205s13.305,9.863,14.487,12.555
				c1.183,2.693-8.601-2.043-11.783-2.896c-2.06-0.554-7.484,1.331-10.17,2.228c-11.3,3.767-18.224,1.828-18.224,1.828
				L1736.5,512.835z"/>
			<path style="fill:#8C9DF4;" d="M1720.466,378.634c0,0-32.148,1.98-43.277,17.502c-15.667,21.851-46.743,114.971-28.933,127.39
				c20.059,13.987,91.288,3.659,91.288,3.659s2.37-11.079-0.928-16.438c-3.299-5.359-56.894-14.018-59.366-16.491
				c-2.474-2.473,30.92-48.234,30.92-55.656C1710.17,431.18,1720.466,378.634,1720.466,378.634z"/>
			<path style="fill:#FFB27D;" d="M1765.465,516.294c0,0,5.017,6.471,6.662,7.243c1.644,0.773,2.707,0.579,2.707,0.579l-3.381-6.084
				L1765.465,516.294z"/>
			<path style="fill:#FFB27D;" d="M1764.306,509.63l14.586,7.083c0,0-0.62,1.016-2.417,0.933c-1.796-0.082-6.325-1.737-6.325-1.737
				L1764.306,509.63z"/>
		</g>
		<g>
			<polygon style="fill:#152949;" points="1888.854,526.28 1736.5,526.28 1736.5,529.644 1887.502,529.644 			"/>
			<polygon style="fill:#152949;" points="1772.127,529.644 1887.502,529.644 1922.209,443.336 1807.012,443.336 			"/>
			<path style="fill:#EBF3FA;" d="M1858.377,486.489c0.87-3.034-0.885-5.493-3.918-5.493c-3.034,0-6.199,2.459-7.068,5.493
				c-0.87,3.034,0.884,5.493,3.918,5.493S1857.507,489.523,1858.377,486.489z"/>
		</g>
	</g>
	<g>
		<g>
			<path style="fill:#F78248;" d="M1466.379,813.413c0,42.87,72.19,111.396,72.19,111.396s72.19-68.526,72.19-111.396
				c0-42.87-32.319-77.632-72.19-77.632S1466.379,770.543,1466.379,813.413z M1496.032,808.86c0-23.436,19.103-42.538,42.537-42.538
				c23.545,0,42.537,19.102,42.537,42.538c0,23.544-18.992,42.537-42.537,42.537C1515.135,851.398,1496.032,832.404,1496.032,808.86
				z"/>
		</g>
		<path style="fill:#EBF3FA;" d="M1496.032,808.859c0-23.492,19.044-42.537,42.537-42.537s42.537,19.045,42.537,42.537
			c0,23.492-19.044,42.538-42.537,42.538S1496.032,832.352,1496.032,808.859z"/>
	</g>
	<g>
		<path style="fill:#FFB27D;" d="M1565.258,935.93c0,0-2.217-19.307-6.896-26.686c-4.678-7.379-22.363-12.121-23.482-11.036
			c-3.463,3.355,10.229,15.213,10.766,19.583c0.537,4.37-6.95,1.348-3.354,9.867c3.037,7.195,13.045,16.526,13.045,16.526
			L1565.258,935.93z"/>
		<path style="fill:#DD6C3A;" d="M1556.729,933.778c6.451-5.061,7.82-4.964,7.82-4.964s59.657,51.682,65.466,56.284
			c5.808,4.603,95.408,30.585,95.408,30.585l14.237,72.838c0,0-121.239-58.559-135.727-70.51
			c-23.939-19.748-54.146-75.014-54.146-75.014S1551.663,937.754,1556.729,933.778z"/>
		<path style="fill:#163560;" d="M1727.348,1633.796c0,0-1.027,24.895-5.807,30.948l-66.5,0.384
			c0.465-2.566,0.744-8.505,9.938-10.11c11.62-2.021,25.267-10.127,32.299-25.485
			C1704.685,1613.376,1727.348,1633.796,1727.348,1633.796z"/>
		<path style="fill:#163560;" d="M1857.847,1630.208c0,0,4.637,33.072-1.657,33.649c-0.838,0.078-26.799,0.495-38.04,0.684
			c-13.222,0.221-34.943-0.245-34.943-0.245c-2.732,0.113-4.522-2.845-3.131-5.199c1.526-2.583,4.438-5.341,9.989-6.41
			c11.581-2.228,30.881-10.734,37.647-26.212C1834.83,1610.193,1857.847,1630.208,1857.847,1630.208z"/>
		<path style="fill:#233862;" d="M1692.771,1291.305c0,0,18.489,64.702,71.484,177.061
			c52.995,112.357,55.287,166.506,55.287,166.506s8.022,2.839,18.664,1.703c11.514-1.229,19.64-6.366,19.64-6.366
			s-3.433-133.736-28.466-190.437c-25.031-56.701-30.132-211.859-30.132-211.859L1692.771,1291.305z"/>
		<path style="fill:#2A4E96;" d="M1663.085,1235.635c0,0-1.473,100.188,15.862,223.201c17.334,123.014,9.229,180.222,9.229,180.222
			s4.595,3.346,18.727,3.29c16.544-0.066,25.02-6.901,25.02-6.901s24.811-123.059,17.697-184.63
			c-7.114-61.571,33.976-211.277,33.976-211.277L1663.085,1235.635z"/>
		<path style="fill:#FFB27D;" d="M1745.006,1001.181l-19.582,14.503l-28.3-5.957c0.392-2.582,2.26-13.277,3.962-22.966
			c0.102-0.571,0.205-1.142,0.302-1.701c1.457-8.243,2.715-15.325,2.715-15.325l26.432-13.174l9.855-4.911
			c-0.026,0.173-0.764,9.148-0.867,10.458C1737.674,985.375,1745.006,1001.181,1745.006,1001.181z"/>
		<path style="fill:#F78248;" d="M1801.092,1248.009c-6.4,29.282-143.433,16.429-141.645-1.447
			c0.068-0.596,0.426-8.869,0.919-20.021c1.039-24.124,2.622-61.817,2.827-64.763c0-0.051,0.017-0.103,0.017-0.152
			c2.468-24.891,4.835-49.236,4.988-65.137c0.136-13.79,2.043-27.887,4.563-40.689c2.332-11.814,5.192-22.54,7.679-30.899
			c1.753-5.891,5.021-11.065,9.346-15.135c3.081-2.895,6.691-5.227,10.675-6.811c1.089-0.459,2.196-0.833,3.319-1.158
			c16.123-4.681,38.442-10.469,44.485-8.698c16.378,4.817,28.55,33.657,37.165,70.413
			C1801.553,1132.309,1805.28,1228.924,1801.092,1248.009z"/>
		<path style="fill:#FCA56B;" d="M1737.539,962.519c-5.805,11.107-27.434,20.712-36.453,24.242c0.102-0.571,0.205-1.142,0.302-1.701
			c1.457-8.243,2.715-15.325,2.715-15.325l26.432-13.174C1736.377,956.471,1739.934,957.948,1737.539,962.519z"/>
		<path style="fill:#FFB27D;" d="M1691.258,968.188c0,0,47.686,14.876,56.492-14.963c8.807-29.839,20.893-48.015-9.181-58.774
			c-30.074-10.76-39.377-1.127-44.739,8.118C1688.468,911.813,1679.081,963.549,1691.258,968.188z"/>
		<path style="fill:#163560;" d="M1695.703,899.693c0,0,3.041,34.723,10.223,33.216c7.18-1.508,13.692-2.626,12.642,7.841
			c-1.052,10.467-11.01,22.554,11.121,24.405c22.13,1.852,53.943-55.222,47.864-66.026
			C1760.012,867.95,1670.35,861.657,1695.703,899.693z"/>
		<path style="fill:#DD6C3A;" d="M1660.366,1226.541c1.039-24.124,2.622-61.817,2.827-64.763c0-0.051,0.017-0.103,0.017-0.152
			l80.952-48.401C1744.162,1113.225,1747.295,1226.217,1660.366,1226.541z"/>
		<path style="fill:#FFB27D;" d="M1596.02,1125.255c0,0-16.453-11.13-19.573-12.099c-3.12-0.97-13.351-2.021-13.826-1.215
			c-0.475,0.806-1.876,3.273-0.088,4.109s4.013,0.543,3.345,1.127s-7.395-2.617-8.945,0.812c-1.551,3.43-2.916,15.18,4.975,18.741
			c7.892,3.563,27.37,0.344,28.775,0.753C1602.594,1140.945,1596.02,1125.255,1596.02,1125.255z"/>
		<path style="fill:#F78248;" d="M1595.867,1122.246c0,0,80.297,13.651,87.411,10.187c11.357-5.529-4.407-86.998-4.407-86.998
			s-0.676-18.464,20.891-22.818c18.742-3.784,36.823,10.255,36.823,10.255s16.445,14.714,14.344,31.035
			c-4.657,36.179-11.901,109.761-36.1,121.039c-31.21,14.548-121.522-40.342-121.522-40.342s-3.007-3.682-2.579-10.521
			C1591.105,1128.051,1595.867,1122.246,1595.867,1122.246z"/>
		<path style="fill:#FFB27D;" d="M1541.911,926.687c0,0-5.139-10.217-5.961-12.134c-0.822-1.917,1.18-1.504,3.157-0.434
			c1.979,1.069,4.675,6.999,7.726,6.283C1549.255,919.835,1541.911,926.687,1541.911,926.687z"/>
	</g>
	<g>
		<path style="fill:#2B478B;" d="M862.903,1628.178c0,1.457,0.086,2.904,0.269,4.313c0.547,4.524,1.946,8.779,4.025,12.612
			c1.63,2.99,3.68,5.713,6.066,8.099c6.412,6.401,15.248,10.36,25.022,10.36h497.648c19.542,0,35.394-15.843,35.394-35.384
			c0-9.775-3.958-18.621-10.37-25.023c-6.402-6.411-15.247-10.369-25.023-10.369H898.286
			C878.745,1592.785,862.903,1608.627,862.903,1628.178z"/>
		<path style="fill:#2B478B;" d="M900.861,1586.383h170.626c2.986,0,5.431-2.443,5.431-5.431l0,0c0-2.987-2.444-5.431-5.431-5.431
			H900.861c-2.986,0-5.43,2.443-5.43,5.431l0,0C895.432,1583.939,897.875,1586.383,900.861,1586.383z"/>
		
			<rect x="910.286" y="1586.383" transform="matrix(-1 -1.224647e-16 1.224647e-16 -1 1839.0664 3179.1719)" style="fill:#233862;" width="18.494" height="6.406"/>
		<path style="fill:#233862;" d="M867.197,1645.103c1.63,2.99,3.68,5.713,6.066,8.099c6.412,6.401,15.248,10.36,25.022,10.36
			h105.412v-18.459H867.197z"/>
		<path style="fill:#F99746;" d="M1497.197,1617.809v20.729c0,2.271-0.306,4.476-0.872,6.564
			c-2.875,10.639-12.594,18.459-24.141,18.459H953.797c-11.548,0-21.266-7.82-24.141-18.459c-0.567-2.089-0.873-4.293-0.873-6.564
			v-20.729c0-13.82,11.194-25.023,25.014-25.023h518.388C1486.004,1592.785,1497.197,1603.988,1497.197,1617.809z"/>
		<path style="fill:#EF873A;" d="M1496.325,1645.103c-2.875,10.639-12.594,18.459-24.141,18.459H953.797
			c-11.548,0-21.266-7.82-24.141-18.459H1496.325z"/>
		<g>
			<path style="fill:#8C9DF4;" d="M1445.712,1628.303c0,10.992,3.996,20.815,10.293,27.323c0.144,0.144,0.278,0.288,0.422,0.432
				c4.868,4.849,11.041,7.753,17.759,7.753c10.494,0,36.505-15.833,52.625-26.346c8.03-5.243,13.608-9.162,13.608-9.162
				s-5.578-3.921-13.608-9.162c-16.12-10.523-42.131-26.355-52.625-26.355c-3.038,0-5.961,0.594-8.712,1.687
				c-4.629,1.859-8.75,5.157-11.999,9.47c-3.584,4.733-6.133,10.694-7.207,17.316c-0.01,0.077-0.028,0.154-0.028,0.23
				C1445.895,1623.684,1445.712,1625.965,1445.712,1628.303z"/>
			<path style="fill:#6980E2;" d="M1445.712,1628.303c0,10.992,3.996,20.815,10.293,27.323l79.785-27.448l-89.551-6.689
				C1445.895,1623.684,1445.712,1625.965,1445.712,1628.303z"/>
			<path style="fill:#9FB1FF;" d="M1453.475,1603.941l79.594,21.735l-67.595-31.205
				C1460.845,1596.331,1456.724,1599.629,1453.475,1603.941z"/>
			<path style="fill:#182D4C;" d="M1521.615,1628.303c0,4.227,2.166,7.829,5.195,9.162c8.03-5.243,13.608-9.162,13.608-9.162
				s-5.578-3.921-13.608-9.162C1523.781,1620.463,1521.615,1624.066,1521.615,1628.303z"/>
		</g>
	</g>
	<path style="fill:#2E3552;" d="M2572.982,1670.474H265.456c-1.502,0-2.731-1.229-2.731-2.731v-1.201c0-1.502,1.229-2.73,2.731-2.73
		h2307.526c1.502,0,2.73,1.229,2.73,2.73v1.201C2575.713,1669.245,2574.484,1670.474,2572.982,1670.474z"/>
</g>
</svg>
