<svg xmlns="http://www.w3.org/2000/svg" viewBox="0 0 2760 1840" style="enable-background:new 0 0 2760 1840" xml:space="preserve"><path style="fill:#fff" d="M0 0h2760v1840H0z"/><path style="fill:#ebf3fa" d="M355.379 1667.687s-304.46-285.856-110.765-622.177c193.695-336.32 453.844-167.186 441.254-558.631-12.59-391.446 598.288-425.077 792.735-311.574 194.447 113.503 193.278 250.205 594.693 204.975 401.414-45.229 478.099 331.807 373.667 523.962-148.171 272.639 411.237 227.672 58.748 763.444H355.379z"/><g style="opacity:.5"><path style="fill:#759be0" d="m1514.514 931.648-58.03 689.998s-6.08 41.827 25.031 41.9c51.154.122 254.61 0 254.61 0s-38.5-8.707-38.033-28.296c.55-23.092 67.825-710.133 67.825-710.133l-251.403 6.531z"/><path style="fill:#aec3ff" d="M1752.633 1651.028c-10.062.029-204.387.639-254.202 0-21.711-.271-25.517-19.304-25.697-31.622-.09-5.905.659-10.271.659-10.271l1.51-17.934 3.846-45.709 3.397-40.384 4.366-51.894 3.676-43.801 41.233-490.291 251.405-6.524s-28.335 287.523-48.377 496.815c-2.238 23.318-4.366 45.68-6.334 66.55-.64 6.665-1.249 13.179-1.849 19.523a31640.79 31640.79 0 0 0-5.035 54.042c-.779 8.462-1.499 16.325-2.148 23.527-2.558 28.226-4.057 46.249-4.076 49.676-.01 1.998.16 3.857.489 5.586 4.127 21.992 33.36 22.711 37.137 22.711z"/><path style="fill:#aec3ff" d="m903.967 556.176 141.35 567.784 19.355 77.76 65.835 264.457h1223.11L2110.96 556.176z"/><path style="fill:#759be0" d="m903.964 556.176-19.591 6.53 220.091 923.225 26.046-19.751z"/><path style="fill:#759be0" d="M1104.464 1485.931h1215.581l33.567-19.751H1130.51z"/><path transform="rotate(-180 1662.936 1657.557)" style="fill:#aec3ff" d="M1531.34 1651.304h263.191v12.507H1531.34z"/><path style="opacity:.7;fill:#759be0" d="m1727.625 1485.926-1.358 9.561-247.519 50.005 3.398-40.384 1.618-19.182z"/><path style="fill:#94b0ed" d="M1752.633 1651.028c-10.062.029-204.387.639-254.202 0-21.711-.271-25.517-19.304-25.697-31.622l246.35-46.35c-2.558 28.226-4.057 46.249-4.076 49.676-.01 1.998.16 3.857.489 5.586 4.126 21.991 33.359 22.71 37.136 22.71zM1667.801 1281.959 1130.51 1466.18l-65.838-264.46z"/><path style="fill:#d2e0ff" d="M903.964 556.176h1206.995l194.354 731.354H1086.104z"/><path style="fill:#94b0ed" d="M2305.983 1287.527h-10.108l-82.74-315.707-106.357-405.843H918.981l179.927 721.55-12.844.132-182.095-731.478 1211.172-1.049 1.059 4.037 106.321 408.025z"/><path style="fill:#aec3ff" d="m2307.818 1294.569-9.755 1.308-84.928-324.057 9.386-4.626z"/></g><path style="fill:#163560" d="M605.658 1000.922c-2.009-6.058 27.442 7.896 62.538-3.865 30.247-10.137 2.974-29.887 10.681-54.935 5.49-17.834 3.754-65.754-42.999-67.675 0 0-11.239-6.805-27.477-1.413-36.93 12.263-113.733 136.634-2.743 127.888z"/><path style="fill:#f78248" d="M656.891 1106.105s4.442 8.798 12.499 18.904c9.712 12.164 60.687-16.708 56.295-18.904-4.392-2.194-30.007-75.986-36.104-85.26-6.103-9.271-26.888-14.087-26.888-14.087l-5.802 99.347z"/><path style="fill:#1f447f" d="M484.876 1603.801s-14.069 12.84-11.324 21.961c2.746 9.123 15.441 15.206 17.157 26.355 1.716 11.149 8.578 17.231 14.756 17.231h29.446s4.547-7.846-6.434-10.211-15.121-15.468-14.434-27.631c.686-12.164-1.029-28.382-1.029-28.382l-23.335-5.406-4.803 6.083z"/><path style="fill:#1c3154" d="M603.953 1609.252s-5.06 54.391 1.116 57.433l79.045-.163s0-9.123-12.695-11.149c-12.697-2.028-35.002-9.461-38.775-26.017-3.776-16.556-28.691-20.104-28.691-20.104z"/><path style="fill:#f78248" d="M543.147 1069.419s-1.178 16.607 0 36.536c.783 13.21 14.146 30.903 16.042 35.279 4.756 10.979 10.121 12.764 10.121 12.764l41.503 10.173 14.593 3.571 46.018-13.744s20.96-58.504 12.544-91.437c-8.416-32.934-21.275-55.803-21.275-55.803s-31.272-7.031-86.444-3.118l-33.102 65.779z"/><path style="fill:#dd6c3a" d="M539.193 1106.417c.784 13.21 18.101 30.441 19.996 34.817 4.756 10.979 10.121 12.764 10.121 12.764l41.503 10.173 7.493-21.477s-60.641-15.93-50.886-72.057l-28.227 35.78z"/><path style="fill:#233862" d="M668.499 1162.879s22.788 70.935 24.252 95.086c1.464 24.151-43.563 343.086-45.375 354.214-1.707 10.49-14.732 17.177-14.732 17.177s-5.991 3.534-14.541 1.12c-11.863-3.351-15.612-7.361-15.612-7.361s-17.738-227.462-6.762-308.716c10.978-81.254 11.107-151.52 11.107-151.52h61.663z"/><path style="fill:#2a4e96" d="M571.943 1160.764s-34.762 46.643-38.004 78.173c-3.239 31.53-5.083 142.282-11.988 173.021-6.904 30.738-32.272 89.89-32.272 185.762 0 0 2.638 5.494 10.779 8.423 2.604.936 6.092 1.843 9.478 2.62 6.715 1.539 13.603-1.742 16.668-7.911 17.149-34.53 71.78-145.901 74.581-169.02 1.983-16.36 19.232-124.639 56.858-188.175 9.032-15.253-5.544-75.914-5.544-75.914l-80.556-6.979z"/><path style="fill:#233862" d="M672.139 1151.928s-9.149 7.237-27.324 7.604c-21.709.437-75.502-5.534-75.502-5.534s-2.391 6.677-2.292 13.729c0 0 65.698 16.572 103.766 2.42-.001-.001 4.908-9.238 1.352-18.219z"/><path style="fill:#fff" d="M640.117 1167.028c0-6.184 4.443-11.213 9.906-11.213 5.462 0 9.906 5.029 9.906 11.213 0 6.182-4.444 11.21-9.906 11.21-5.463 0-9.906-5.028-9.906-11.21zm3.283 0c0 4.371 2.972 7.928 6.623 7.928 3.651 0 6.623-3.557 6.623-7.928 0-4.373-2.972-7.929-6.623-7.929-3.651.001-6.623 3.556-6.623 7.929z"/><path style="fill:#6980e2" d="m602.56 1198.633 98.745.924 48.591-114.193-98.746-.923z"/><path style="fill:#ffb27d" d="m615.473 1147.03 7.238-8.895s4.898-4.37 8.453-5.111c3.555-.743 11.061-5.072 11.788-3.852.728 1.22-5.767 9.92-5.767 9.92l-.33.048c7.455 5.606 26.277.656 28.601 2.944 2.816 2.773-3.875 8.766-7.467 12.132-3.59 3.365-13.857 8.976-21.861 6.484-5.851-1.821-15.06-3.675-15.06-3.675l-5.595-9.995zM742.469 1105.452s-6.206-7.052-10.155-3.667c-3.948 3.385 1.034 20.027 4.795 18.335 3.76-1.693 7.522-12.599 5.36-14.668z"/><path style="fill:#f78248" d="M576.249 1003.641s-28.27 3.118-48.556 39.977c-15.996 29.065-43.344 82.648-33.025 97.784 4.531 6.646 47.956 30.289 131.715 16.774 0 0-1.318-10.579-8.076-15.481 0 0-70.487-22.632-70.367-27.134.229-8.516 9.526-15.874 48.899-55.26 10.704-10.708-20.59-56.66-20.59-56.66z"/><path style="fill:#ffb27d" d="M598.003 1005.134c-.971-1.303.278-5.455 1.832-13.188 1.405-7.006 3.791-17.842 3.741-30.031l2.082.349 35.035 5.895s-.797 9.367-.82 18.191v.22c-.044 7.665 2.067 19.247-.517 20.761-13.276 7.776-37.618 2.82-41.353-2.197z"/><path style="fill:#e8945b" d="M640.693 968.157s-.697 13.208-.72 22.032c-19.605-.469-30.068-19.505-34.315-27.927l35.035 5.895z"/><path style="fill:#ffb27d" d="M642.809 983.91s-45.928-6.541-41.414-35.08c4.514-28.539 1.626-48.604 31.142-45.635 29.515 2.971 33.476 14.76 34.286 24.651.81 9.892-11.95 57.03-24.014 56.064z"/><path style="fill:#163560" d="M653.511 905.82s-17.875 31.479-37.912 33.361c-20.036 1.883-27.564-4.603-27.564-4.603s16.633-9.377 22.959-29.363c-.001 0 35.594-16.834 42.517.605z"/><path style="fill:#163560" d="M649.969 908.043s8.747 4.958 11.494 12.351c2.686 7.229 4.477 16.523 2.018 27.183 0 0 13.074-21.248 4.506-35.812-9.086-15.443-18.018-3.722-18.018-3.722z"/><path style="fill:#d5dffc" d="m248.032 1319.478 24.949-2.812a5.568 5.568 0 0 1 5.238 2.508 97.656 97.656 0 0 0 4.642 6.59c3.068 3.999 6.353 7.694 9.88 11.03 1.649 1.566 2.197 3.943 1.354 6.04l-9.568 24.434c-1.045 2.598.105 5.582 2.656 6.836l21.497 10.646a5.33 5.33 0 0 0 6.833-1.894l12.998-20.367c1.222-2.008 3.65-2.938 5.991-2.317a97.037 97.037 0 0 0 30.433 3.031c2.48-.144 4.788 1.471 5.532 3.834l4.405 14.023c.862 2.653 3.576 4.3 6.342 3.766l23.346-4.722a4.92 4.92 0 0 0 1.349-.447 5.356 5.356 0 0 0 2.986-5.468l-2.078-18.641-.516-4.541a95.979 95.979 0 0 0 11.32-7.479 97.458 97.458 0 0 0 13.284-12.298c1.51-1.677 3.876-2.283 5.973-1.44l19.674 7.729c2.695 1.038 5.74-.124 6.999-2.713l8.143-16.434 2.32-4.716c1.276-2.567.42-5.708-1.997-7.238l-17.012-10.876c-1.986-1.238-2.965-3.596-2.397-5.826a96.37 96.37 0 0 0 2.593-20.428c.059-.598.053-1.146.052-1.731-.014-.197.013-.39.037-.581.212-2.199 1.742-4.03 3.861-4.688l22.753-7.203c.262-.063.513-.187.742-.293 2.213-1.076 3.479-3.566 3.002-6.033l-4.672-23.279a5.54 5.54 0 0 0-6.043-4.41l-26.021 2.943c-2.205.275-4.321-.863-5.373-2.818a98.128 98.128 0 0 0-13.26-18.588c-1.432-1.596-1.856-3.859-1.067-5.846l9.19-23.486c1.023-2.581-.11-5.544-2.623-6.794l-21.281-10.5a5.63 5.63 0 0 0-7.26 2.014l-10.289 16.112a5.53 5.53 0 0 1-6.435 2.279c-9.455-3.277-19.365-5.031-29.355-5.273-2.362-.018-4.461-1.584-5.177-3.866l-6.482-20.509c-.869-2.752-3.681-4.393-6.508-3.847l-23.198 4.644c-2.788.551-4.677 3.174-4.34 5.953l.11 1.09 2.424 21.654c.261 2.32-.926 4.51-3.002 5.584l-.022.018a96.098 96.098 0 0 0-14.392 9.143 101.729 101.729 0 0 0-7.014 5.935 5.445 5.445 0 0 1-5.735 1.12l-19.971-7.847c-2.729-1.082-5.839.13-7.12 2.735l-10.469 21.188a6.118 6.118 0 0 0-.539 1.863c-.208 2.024.73 4.101 2.513 5.255l13.612 8.65a5.607 5.607 0 0 1 2.541 4.887 5.977 5.977 0 0 1-.279 1.525 96.403 96.403 0 0 0-4.9 37.807c.183 2.174-1.022 4.203-2.913 5.205a5.6 5.6 0 0 1-.867.354l-18.429 5.819c-2.67.84-4.278 3.559-3.744 6.325l.104.541 4.534 22.695a5.618 5.618 0 0 0 6.136 4.444zm159.617-70.849a64.465 64.465 0 0 1 3.387 11.524c1.526 7.841-.063 20.214-3.606 27.387a86.12 86.12 0 0 1-1.159 2.27c-24.412 45.318-88.404 36.305-98.942-14.827-1.366-6.687-.514-16.422 1.875-23.883.578-1.722 1.201-3.339 1.91-4.712 3.26-6.506 7.299-11.952 11.908-16.388 26.28-25.24 70.189-16.977 84.627 18.629zM813.148 428.435l20.999-2.366a4.684 4.684 0 0 1 4.409 2.11 83.129 83.129 0 0 0 3.906 5.547c2.583 3.365 5.348 6.476 8.316 9.284 1.389 1.318 1.849 3.318 1.139 5.084l-8.053 20.564c-.879 2.186.088 4.699 2.235 5.755l18.094 8.961a4.486 4.486 0 0 0 5.752-1.595l10.94-17.143c1.028-1.689 3.071-2.474 5.043-1.95a81.661 81.661 0 0 0 25.614 2.551c2.088-.12 4.03 1.237 4.655 3.228l3.709 11.802c.726 2.233 3.01 3.621 5.338 3.17l19.648-3.973a4.088 4.088 0 0 0 1.135-.378 4.504 4.504 0 0 0 2.514-4.602l-1.748-15.69-.434-3.822a80.805 80.805 0 0 0 9.527-6.294 82.011 82.011 0 0 0 11.182-10.352c1.271-1.411 3.262-1.922 5.026-1.213l16.56 6.506c2.268.875 4.832-.103 5.891-2.282l6.855-13.833 1.954-3.969c1.073-2.161.352-4.805-1.682-6.092l-14.318-9.154c-1.672-1.042-2.495-3.026-2.019-4.904a81.07 81.07 0 0 0 2.183-17.194c.049-.503.045-.964.043-1.458-.011-.166.011-.328.032-.489.178-1.851 1.466-3.392 3.249-3.946l19.15-6.063c.222-.053.433-.157.626-.247 1.861-.906 2.927-3.002 2.526-5.078l-3.932-19.594a4.663 4.663 0 0 0-5.086-3.712l-21.902 2.477c-1.856.232-3.638-.726-4.522-2.372a82.747 82.747 0 0 0-6.857-10.49 81.116 81.116 0 0 0-4.305-5.155 4.754 4.754 0 0 1-.899-4.92l7.734-19.769c.861-2.172-.093-4.666-2.207-5.718l-17.912-8.838a4.74 4.74 0 0 0-6.111 1.695l-8.659 13.561a4.654 4.654 0 0 1-5.417 1.918c-7.957-2.758-16.298-4.235-24.707-4.438-1.988-.015-3.756-1.333-4.357-3.254l-5.455-17.262c-.731-2.317-3.099-3.697-5.478-3.238l-19.525 3.908c-2.347.464-3.936 2.672-3.652 5.011l.093.917 2.04 18.227c.221 1.953-.778 3.795-2.527 4.7l-.018.014a81.071 81.071 0 0 0-12.113 7.696 85.73 85.73 0 0 0-5.904 4.995 4.586 4.586 0 0 1-4.828.943l-16.808-6.604c-2.298-.911-4.915.109-5.993 2.302l-8.812 17.834a5.1 5.1 0 0 0-.453 1.568 4.724 4.724 0 0 0 2.114 4.423l11.457 7.281a4.722 4.722 0 0 1 2.14 4.113 5.1 5.1 0 0 1-.235 1.285 81.159 81.159 0 0 0-4.125 31.82c.153 1.829-.86 3.538-2.452 4.381a4.715 4.715 0 0 1-.729.298l-15.512 4.897c-2.247.707-3.601 2.996-3.15 5.324l.088.456 3.815 19.102a4.73 4.73 0 0 0 5.165 3.743zm134.348-59.633a54.344 54.344 0 0 1 2.851 9.7c1.285 6.599-.054 17.013-3.036 23.051-.315.649-.644 1.28-.975 1.91-20.548 38.144-74.409 30.558-83.279-12.479-1.149-5.628-.433-13.822 1.579-20.102.487-1.449 1.011-2.81 1.607-3.965 2.743-5.477 6.143-10.061 10.022-13.794 22.122-21.245 59.079-14.289 71.231 15.679z"/><g><path style="fill:#8c9df4" d="M2099.297 660.828v675.606c0 24.694-18.926 44.716-42.27 44.716H861.783c-23.344 0-42.27-20.021-42.27-44.716V660.828c0-24.695 18.926-44.717 42.27-44.717h1195.244c23.344 0 42.27 20.022 42.27 44.717z"/><path style="fill:#6980e2" d="M2099.297 658.381v30.963H819.514v-30.963c0-23.344 18.926-42.27 42.27-42.27h1195.244c23.343 0 42.269 18.926 42.269 42.27z"/><path style="fill:#c0d4ff" d="M1322.247 1026.265c19.977 25.584-3.938 64.95 9.845 94.223 2.635 5.597 6.575 10.571 8.771 16.348 3.63 9.551 2.134 20.236 4.383 30.188 2.248 9.952 11.28 20.193 21.284 17.53 8.663-2.305 12.146-12.716 11.904-21.538-.24-8.822-2.729-17.862-.149-26.317 3.132-10.27 13.658-17.383 24.515-18.351 10.855-.967 21.708 3.484 30.067 10.364 9.174 7.549 19.209 18.896 30.454 14.892 10.775-3.839 11.655-19.145 6.381-29.152s-14.47-17.86-18.386-28.454c-4.927-13.323-.397-28.494 7.603-40.286 7.999-11.791 19.145-21.104 29.197-31.263 3.44-3.475 6.928-7.4 7.519-12.216.589-4.814-3.256-10.376-8.143-9.734-3.293.436-5.586 3.292-8.126 5.4-10.998 9.122-29.224 3.775-37.581-7.744-8.358-11.517-9.063-26.753-7.625-40.832 17.19 4.014 32.772-19.69 49.369-13.726 10.399 3.737 13.259 16.477 16.024 27.023 4.921 18.768 14.298 36.432 16.739 55.665 4.656 36.669-15.901 76.948 2.432 109.204 6.877 12.1 18.435 20.989 30.66 27.886 29.152 16.445 66.308 22.84 96.456 8.234 34.773-16.847 67.753-56.296 68.026-58.663 3.418-29.47-1.002-47.369 4.315-56.499 20.022-34.373 79.673-8.974 108.437-7.256 79.402 4.744 74.832-46.524 74.572-70.248-.63-57.315-11.752-67.806-69.536-74.958-30.256-3.743-61.437 2.363-91.208-4.124-26.072-5.684-48.989-20.573-73.905-30.024-45.784-17.367-98.775-15.413-143.11 5.273-9.57 4.468-18.956 9.828-29.403 11.549-10.449 1.72-22.573-1.184-28.156-10.039-6.638-10.529-1.541-24.429 5.596-34.638 7.138-10.209 16.474-19.673 18.846-31.84 3.293-16.894-8.922-34.132-24.99-40.918-16.069-6.787-34.729-4.845-51.262.76-30.213 10.243-55.09 31.627-77.492 54.043-26.547 26.562-51.964 57.786-55.683 94.854-1.463 14.588.559 29.677-4.545 43.741-3.814 10.516-13.196 18.415-9.534 30.103 7.016 22.393 41.942 24.256 55.439 41.54zM1787.756 845.78l15.74 12.266c3.615 2.817 7.347 5.692 11.303 6.418 8.328 1.527 15.973-8.526 15.539-20.44-.431-11.912-8.847-23.103-17.106-22.748-5.107.22-10.261 4.087-15.057.714-10.021-7.048-16.804-41.199-25.581-18.119-6.515 17.13 4.606 33.969 15.162 41.909zM1168.567 893.974c10.998 6.985 21.998 13.969 32.997 20.952 6.103 3.876 13.085 10.102 10.539 16.793-3.172 8.338-15.511 5.787-24.479 6.979-12.307 1.636-21.564 14.981-18.629 26.849 2.18 8.811 9.411 19.149 2.821 25.49-5.962 5.736-16.466.35-24.132 3.579-4.542 1.913-7.398 6.609-11.947 8.505-3.892 1.623-8.55.983-12.239 3.01-4.586 2.519-6.191 8.256-10.015 11.797-11.596 10.743-32.44-4.83-46.012 3.375-10.35 6.257-8.613 22.488-.53 31.407 8.083 8.92 20.058 13.189 30.321 19.581 10.263 6.393 19.744 17.238 17.513 28.984-2.309 12.152-16.549 22.742-11.452 34.044 1.569 3.481 4.738 5.959 7.227 8.877 6.428 7.54 8.175 18.443 5.21 27.843-2.963 9.398-10.304 17.195-19.241 21.617-5.68 2.811-11.94 4.339-17.628 7.135-15.415 7.574-24.658 23.26-32.826 38.184-10.152 18.544-20.157 37.656-23.539 58.453-1.12 6.887-2.192 14.986-8.383 18.385-7.267 3.989-16.591-1.877-20.106-9.297-3.515-7.419-3.39-15.954-5.38-23.9-3.748-14.965-14.845-27.339-18.731-42.271-9.297-35.707 24.813-71.181 18.318-107.483-1.356-7.577-4.46-14.782-5.647-22.387-2.358-15.083 3.504-31.171 15.066-41.349 12.45-10.957 31.669-16.544 36.659-32.227 5.507-17.303-10.505-35.145-7.707-53.064.896-5.736 3.694-11.066 4.505-16.814.933-6.615-.823-13.289-2.727-19.7-5.351-18.029-11.83-38.18-2.852-54.758 5.428-10.019 15.631-16.639 26.008-21.607 24.138-11.556 51.063-16.025 77.746-13.879 11.175.898 21.539-2.242 23.047 10.199 1.633 13.458 3.647 18.712 16.225 26.698zM1246.425 801.124c5.906-4.131 12.999-6.266 19.317-9.76 6.317-3.494 12.233-9.106 12.789-16.215.434-5.546-2.577-10.935-6.761-14.678-4.183-3.743-9.437-6.093-14.665-8.21a256.932 256.932 0 0 0-31.541-10.447c-5.932-1.547-12.298-2.869-18.11-.935-5.16 1.719-9.124 5.762-12.716 9.792-4.987 5.595-9.796 11.653-11.85 18.814-2.941 10.264.189 21.248 4.431 31.063 3.494 8.088 25.169 51.127 36.311 46.314 4.366-1.886 5.968-20.524 7.736-24.988 3.198-8.075 7.753-15.64 15.059-20.75zM1879.605 1196.724c9.188-6.427 20.221-9.747 30.049-15.183 9.829-5.436 19.03-14.166 19.896-25.225.675-8.626-4.01-17.01-10.516-22.832-6.507-5.823-14.681-9.478-22.814-12.771a399.478 399.478 0 0 0-49.066-16.252c-9.226-2.406-19.129-4.464-28.171-1.453-8.027 2.673-14.193 8.963-19.78 15.231-7.758 8.704-15.238 18.128-18.434 29.27-4.577 15.964.294 33.052 6.892 48.319 5.436 12.581 39.152 79.533 56.484 72.047 6.793-2.934 9.285-31.928 12.035-38.872 4.974-12.563 12.061-24.33 23.425-32.279z"/><g><path style="fill:#ebf3fa" d="M869.6 656.731a8.401 8.401 0 1 1 16.802.002 8.401 8.401 0 0 1-16.802-.002z"/><circle style="fill:#ebf3fa" cx="923.155" cy="656.731" r="8.4"/><circle style="fill:#ebf3fa" cx="968.31" cy="656.731" r="8.4"/></g><g><path style="fill:#f78248" d="M1251.525 867.188c0 28.944 48.74 75.211 48.74 75.211s48.74-46.267 48.74-75.211-21.821-52.414-48.74-52.414c-26.919-.001-48.74 23.469-48.74 52.414zm20.021-3.075c0-15.823 12.898-28.719 28.72-28.719 15.896 0 28.72 12.896 28.72 28.719 0 15.897-12.823 28.72-28.72 28.72-15.822 0-28.72-12.823-28.72-28.72z"/><path style="fill:#ebf3fa" d="M1271.546 864.113c0-15.861 12.858-28.719 28.72-28.719s28.72 12.858 28.72 28.719-12.858 28.72-28.72 28.72-28.72-12.858-28.72-28.72z"/></g><g><path style="fill:#f78248" d="M1006.648 1138.213c0 20.623 34.727 53.589 34.727 53.589s34.729-32.966 34.729-53.589c0-20.624-15.548-37.348-34.729-37.348-19.181 0-34.727 16.724-34.727 37.348zm14.264-2.191c0-11.274 9.19-20.464 20.463-20.464 11.328 0 20.464 9.189 20.464 20.464 0 11.326-9.136 20.463-20.464 20.463-11.272 0-20.463-9.136-20.463-20.463z"/><path style="fill:#ebf3fa" d="M1020.912 1136.022c0-11.302 9.162-20.464 20.463-20.464 11.303 0 20.464 9.162 20.464 20.464 0 11.301-9.161 20.463-20.464 20.463-11.301 0-20.463-9.162-20.463-20.463z"/></g></g><g><path style="fill:#d5dffc" d="M967.451 1043.736H750.067c-17.169 0-31.217-14.048-31.217-31.217V788.12c0-17.169 14.048-31.217 31.217-31.217h217.384c17.169 0 31.216 14.048 31.216 31.217v224.399c0 17.169-14.047 31.217-31.216 31.217z"/><path style="fill:#2a4e96" d="M943.258 890.995c0 46.675-37.825 84.499-84.499 84.499-46.674 0-84.498-37.824-84.498-84.499 0-46.674 37.824-84.498 84.498-84.498 5.307 0 10.507.485 15.538 1.434-10.548 38.436-24.546 89.341-25.483 92.516 1.739-2.743 53.128-25.779 88.221-41.306 4.018 9.831 6.223 20.59 6.223 31.854z"/><path style="fill:#f78248" d="M941.735 849.926c-30.99 13.655-82.324 36.538-83.968 39.129.891-3.019 15.09-54.636 24.603-89.232 26.339 7.227 47.989 25.785 59.365 50.103z"/></g><g><path style="fill:#d5dffc" d="M1395.348 656.731h-286.311c-21.145 0-38.442-17.299-38.442-38.442v-258.24c0-21.143 17.298-38.442 38.442-38.442h286.311c21.143 0 38.441 17.299 38.441 38.442v258.24c0 21.143-17.299 38.442-38.441 38.442z"/><path style="fill:#8c9df4" d="M1392.186 601.327H1111.16v-89.425h281.025v89.425zm-277.578-3.448h274.129v-82.528h-274.129v82.528z"/><path style="fill:#8c9df4" d="M1131.522 535.934h108.705v7.086h-108.705zM1251.673 535.934h77.133v7.086h-77.133zM1131.522 556.175h59.992v7.086h-59.992zM1201.661 556.175h77.133v7.086h-77.133zM1286.781 556.175h77.133v7.086h-77.133z"/><g><path style="fill:#2a4e96" d="M1112.885 443.855h29.309v40.749h-29.309zM1163.09 416.845h29.311v67.76h-29.311z"/><path style="fill:#f78248" d="M1213.297 394.712h29.309v89.892h-29.309z"/><path style="fill:#2a4e96" d="M1263.502 412.672h29.31v71.932h-29.31zM1313.708 374.392h29.31v110.212h-29.31z"/><path style="fill:#f78248" d="M1363.914 354.728h29.309v129.876h-29.309z"/></g></g><g><path style="fill:#2a4e96" d="M2339.578 1068.384H1969.1c-20.766 0-37.758-16.991-37.758-37.759V842.858c0-20.767 16.992-37.758 37.758-37.758h370.479c20.767 0 37.758 16.991 37.758 37.758v187.767c-.001 20.768-16.992 37.759-37.759 37.759z"/><path style="fill:#c0d4ff" d="M2133.351 1021.865H1968.45v-52.473h164.901v52.473zm-162.878-2.023h160.854v-48.426h-160.854v48.426z"/><path style="fill:#c0d4ff" d="M1980.396 983.492h63.787v4.158h-63.787zM2050.899 983.492h45.261v4.158h-45.261zM1980.396 995.371h35.203v4.158h-35.203zM2021.554 995.371h45.26v4.158h-45.26zM2071.5 995.371h45.261v4.158H2071.5z"/><g><path style="fill:#c0d4ff" d="M2329.983 1021.865h-164.901v-52.473h164.901v52.473zm-162.878-2.023h160.854v-48.426h-160.854v48.426z"/><path style="fill:#c0d4ff" d="M2177.03 983.492h63.786v4.158h-63.786zM2247.533 983.492h45.26v4.158h-45.26zM2177.03 995.371h35.202v4.158h-35.202zM2218.187 995.371h45.261v4.158h-45.261zM2268.135 995.371h45.26v4.158h-45.26z"/></g><g><path style="fill:#c0d4ff" d="M2340.23 948.578h-371.781V918.43h371.781v30.148zm-368.253-3.527h364.725v-23.094h-364.725v23.094z"/><path style="fill:#c0d4ff" d="M1970.213 920.193h288.583v26.621h-288.583z"/></g><g><path style="fill:#c0d4ff" d="M2340.23 888.635h-371.781v-30.149h371.781v30.149zm-368.253-3.529h364.725v-23.094h-364.725v23.094z"/><path style="fill:#f99746" d="M1968.449 858.485h193.317v30.149h-193.317z"/></g></g><g><path style="fill:#ffb27d" d="M1797.95 753.143c-1.687 1.934-1.902 4.095-1.067 6.402a.05.05 0 0 0 .017.032c1.545 4.269 6.647 9.035 12.575 13.794a64.263 64.263 0 0 1 2.018 1.684c.155.135.309.27.453.406.119.105.234.214.35.315 5.527 5.096 3.447 6.263 13.377 16.602 11.323 11.781 19.119 11.993 21.337 10.921 1.876-.916-1.937-7.164-6.16-14.187-.204-.339-.405-.682-.615-1.024-.563-.934-1.121-1.881-1.68-2.82-4.95-8.451-3.679-12.418-2.505-24.996.953-10.222 15.901-57.106 15.901-57.106l-21.698-3.738s-6.535 37.333-13.735 43.083c-3.85 3.064-8.159 3.103-11.859 5.375-.262.158-.518.319-.769.486-2.105 1.393-4.247 2.831-5.94 4.771z"/><path style="fill:#233862" d="M1797.95 753.143c-1.687 1.934-1.902 4.095-1.067 6.402a.05.05 0 0 0 .017.032c1.892 4.265 6.866 9.008 12.596 13.751.749.622 1.41 1.193 1.997 1.727.155.135.309.27.453.406.119.105.234.214.35.315 5.527 5.096 3.447 6.263 13.377 16.602 11.323 11.781 19.119 11.993 21.337 10.921 1.876-.916-1.937-7.164-6.16-14.187-2.204-.808-12.443-4.967-20.183-14.872-6.57-8.384-11.032-19.07-15.502-25.631l-1.275-.237c-2.105 1.392-4.247 2.831-5.94 4.771z"/><path style="fill:#ffb27d" d="M1972.918 739.59c1.34 6.698 10.887 5.58 21.553 2.975 10.668-2.607 8.133.492 23.313-1.19 15.182-1.68 19.78-7.341 20.243-9.598.415-2.004-7.087-2.71-15.132-3.636-1.012-.114-2.028-.239-3.045-.364-9.084-1.14-15.736-7.002-23.988-11.816-7.814-4.559-19.479-23.138-19.479-23.138l-20.818 1.65s10.924 16.594 15.15 23.809c2.485 4.243 2.354 9.854 2.043 14.188-.161 2.353-.316 4.761.16 7.12z"/><path style="fill:#233862" d="M1994.471 742.565c10.668-2.607 8.133.492 23.313-1.19 15.182-1.68 19.78-7.341 20.243-9.598.415-2.004-7.087-2.71-15.132-3.636l-.075.154s-9.104 6.455-21.741 6.758c-10.3.251-21.209-2.7-28.321-2.585-.16 2.354-.314 4.762.161 7.121 1.339 6.699 10.886 5.581 21.552 2.976z"/><path style="fill:#dd6c3a" d="m1893.133 606.467-19.463 52.37-25.409 68.381s-6.896.666-13.499-1.233c-6.078-1.758-13.054-6.353-13.054-6.353s7.056-73.423 20.217-115.57c3.372-10.817 7.153-19.568 11.323-24.495 20.404-24.114 39.885 26.9 39.885 26.9z"/><path style="fill:#f78248" d="M1873.345 523.295c-11.079-3.574-39.985-.056-71.338 5.619-8.663 1.567-17.394-2.389-21.959-9.916l-78.905-6.163s-26.037 57.742-11.783 94.534c2.096 5.406 6.693 8.781 13.791 8.896.002.002-.004-.004 0 0 0 0 47.68.067 62.929.067 39.241 0 83.047-26.974 88.715-28.108 9.275-1.854 12.985 16.696 22.261 36.174 9.276 19.478 87.19 86.263 87.19 86.263s11.974.119 16.921-1.736c5.32-1.995 7.267-4.587 7.267-4.587s-86.335-171.768-115.089-181.043z"/><path style="fill:#152949" d="M1771.665 287.291c-5.858-3.488-11.57-4.021-15.072-3.921a41.879 41.879 0 0 1-7.276-.442c-30.115-4.415-48.251 39.327-49.313 52.544-1.95 24.266-14.787 27.965-32.856 43.162-36.229 30.472-25.605 65.88-5.795 79.037 11.887 7.894 32.838-.001 32.838-.001.296.207 57.297-31.865 85.396-47.336 42.121-5.988 9.001-112.968-7.922-123.043z"/><path style="fill:#ffb27d" d="M1756.034 397.165c.124.08-13.825 4.842-23.151.711-8.775-3.878-15.422-18.313-15.291-18.321 3.991-.184 8.373-3.674 11.748-26.571l1.699.61 28.577 10.282s-2.07 9.169-3.41 17.9c-1.127 7.33-1.732 14.352-.172 15.389z"/><path style="fill:#ed975d" d="M1759.616 363.876s-1.141 4.948-2.805 14.19c-16.414-2.955-23.461-15.598-25.772-24.472l28.577 10.282z"/><path style="fill:#ffb27d" d="M1763.872 372.978s-39.099-5.248-35.456-29.546c3.643-24.298 1.05-41.34 26.168-39.017 25.117 2.323 28.566 12.321 29.323 20.727.756 8.405-9.77 48.575-20.035 47.836z"/><path style="fill:#152949" d="M1782.482 311.822s-25.029 21.569-42.055 23.308c-17.023 1.739-23.47-3.726-23.47-3.726s10.035-8.331 16.073-21.776c1.779-3.961 5.542-6.684 9.869-7.058 12.159-1.049 35.204-1.528 39.583 9.252z"/><path style="fill:#152949" d="M1766.837 309.891s8.372 8.096 11.009 14.101c2.546 5.794 3.309 19.654 1.281 25.159 0 0 13.047-25.367 5.66-37.692-7.831-13.07-17.95-1.568-17.95-1.568z"/><path style="fill:#8c9df4" d="M1788.957 454.761c-1.183 79.145-.324 62.608-8.981 70.117-2.086 1.808-7.951 2.886-15.67 3.396-24.269 1.609-66.929-2.389-68.552-6.873-5.598-15.519-1.646-20.34-6.316-44.1a198.105 198.105 0 0 0-1.796-8.24c-3.895-16.317-7.685-21.869 6.131-48.084 12.527-23.747 25.543-43.021 26.714-42.325 33.054 19.622 35.719 3.129 35.719 3.129s33.331 34.375 32.751 72.98z"/><path style="fill:#f78248" d="m1873.67 658.837-25.409 68.381s-6.896.666-13.499-1.233c-6.078-1.758-13.054-6.353-13.054-6.353s7.056-73.423 20.217-115.57l31.745 54.775z"/><path style="fill:#8c9df4" d="M1756.206 381.776s34.012 5.767 38.005 20.41c3.994 14.643 17.141 103.526 17.141 103.526s-9.59 9.365-17.577 1.378c-7.988-7.987-25.138-83.161-25.138-83.161l-12.431-42.153z"/><path style="fill:#707fe5" d="M1764.306 528.274c-24.269 1.609-66.929-2.389-68.552-6.873-5.598-15.519-1.646-20.34-6.316-44.1l11.705-32.96s-1.935 36.704 8.89 46.357c10.813 9.655 44.318 18.637 49.58 26.704 2.537 3.871 4.206 7.754 4.693 10.872z"/><path style="fill:#ffb27d" d="M1736.5 512.835s23.942-5.33 27.806-3.205 13.305 9.863 14.487 12.555c1.183 2.693-8.601-2.043-11.783-2.896-2.06-.554-7.484 1.331-10.17 2.228-11.3 3.767-18.224 1.828-18.224 1.828l-2.116-10.51z"/><path style="fill:#8c9df4" d="M1720.466 378.634s-32.148 1.98-43.277 17.502c-15.667 21.851-46.743 114.971-28.933 127.39 20.059 13.987 91.288 3.659 91.288 3.659s2.37-11.079-.928-16.438c-3.299-5.359-56.894-14.018-59.366-16.491-2.474-2.473 30.92-48.234 30.92-55.656 0-7.42 10.296-59.966 10.296-59.966z"/><path style="fill:#ffb27d" d="M1765.465 516.294s5.017 6.471 6.662 7.243c1.644.773 2.707.579 2.707.579l-3.381-6.084-5.988-1.738zM1764.306 509.63l14.586 7.083s-.62 1.016-2.417.933c-1.796-.082-6.325-1.737-6.325-1.737l-5.844-6.279z"/><g><path style="fill:#152949" d="M1888.854 526.28H1736.5v3.364h151.002z"/><path style="fill:#152949" d="M1772.127 529.644h115.375l34.707-86.308h-115.197z"/><path style="fill:#ebf3fa" d="M1858.377 486.489c.87-3.034-.885-5.493-3.918-5.493-3.034 0-6.199 2.459-7.068 5.493-.87 3.034.884 5.493 3.918 5.493s6.198-2.459 7.068-5.493z"/></g></g><g><path style="fill:#f78248" d="M1466.379 813.413c0 42.87 72.19 111.396 72.19 111.396s72.19-68.526 72.19-111.396c0-42.87-32.319-77.632-72.19-77.632s-72.19 34.762-72.19 77.632zm29.653-4.553c0-23.436 19.103-42.538 42.537-42.538 23.545 0 42.537 19.102 42.537 42.538 0 23.544-18.992 42.537-42.537 42.537-23.434.001-42.537-18.993-42.537-42.537z"/><path style="fill:#ebf3fa" d="M1496.032 808.859c0-23.492 19.044-42.537 42.537-42.537s42.537 19.045 42.537 42.537c0 23.492-19.044 42.538-42.537 42.538s-42.537-19.045-42.537-42.538z"/></g><g><path style="fill:#ffb27d" d="M1565.258 935.93s-2.217-19.307-6.896-26.686c-4.678-7.379-22.363-12.121-23.482-11.036-3.463 3.355 10.229 15.213 10.766 19.583.537 4.37-6.95 1.348-3.354 9.867 3.037 7.195 13.045 16.526 13.045 16.526l9.921-8.254z"/><path style="fill:#dd6c3a" d="M1556.729 933.778c6.451-5.061 7.82-4.964 7.82-4.964s59.657 51.682 65.466 56.284c5.808 4.603 95.408 30.585 95.408 30.585l14.237 72.838s-121.239-58.559-135.727-70.51c-23.939-19.748-54.146-75.014-54.146-75.014s1.876-5.243 6.942-9.219z"/><path style="fill:#163560" d="M1727.348 1633.796s-1.027 24.895-5.807 30.948l-66.5.384c.465-2.566.744-8.505 9.938-10.11 11.62-2.021 25.267-10.127 32.299-25.485 7.407-16.157 30.07 4.263 30.07 4.263zM1857.847 1630.208s4.637 33.072-1.657 33.649c-.838.078-26.799.495-38.04.684-13.222.221-34.943-.245-34.943-.245-2.732.113-4.522-2.845-3.131-5.199 1.526-2.583 4.438-5.341 9.989-6.41 11.581-2.228 30.881-10.734 37.647-26.212 7.118-16.282 30.135 3.733 30.135 3.733z"/><path style="fill:#233862" d="M1692.771 1291.305s18.489 64.702 71.484 177.061c52.995 112.357 55.287 166.506 55.287 166.506s8.022 2.839 18.664 1.703c11.514-1.229 19.64-6.366 19.64-6.366s-3.433-133.736-28.466-190.437c-25.031-56.701-30.132-211.859-30.132-211.859l-106.477 63.392z"/><path style="fill:#2a4e96" d="M1663.085 1235.635s-1.473 100.188 15.862 223.201c17.334 123.014 9.229 180.222 9.229 180.222s4.595 3.346 18.727 3.29c16.544-.066 25.02-6.901 25.02-6.901s24.811-123.059 17.697-184.63c-7.114-61.571 33.976-211.277 33.976-211.277l-120.511-3.905z"/><path style="fill:#ffb27d" d="m1745.006 1001.181-19.582 14.503-28.3-5.957c.392-2.582 2.26-13.277 3.962-22.966.102-.571.205-1.142.302-1.701 1.457-8.243 2.715-15.325 2.715-15.325l26.432-13.174 9.855-4.911c-.026.173-.764 9.148-.867 10.458-1.849 23.267 5.483 39.073 5.483 39.073z"/><path style="fill:#f78248" d="M1801.092 1248.009c-6.4 29.282-143.433 16.429-141.645-1.447.068-.596.426-8.869.919-20.021 1.039-24.124 2.622-61.817 2.827-64.763 0-.051.017-.103.017-.152 2.468-24.891 4.835-49.236 4.988-65.137.136-13.79 2.043-27.887 4.563-40.689 2.332-11.814 5.192-22.54 7.679-30.899a34.122 34.122 0 0 1 9.346-15.135 33.894 33.894 0 0 1 10.675-6.811 29.933 29.933 0 0 1 3.319-1.158c16.123-4.681 38.442-10.469 44.485-8.698 16.378 4.817 28.55 33.657 37.165 70.413 16.123 68.797 19.85 165.412 15.662 184.497z"/><path style="fill:#fca56b" d="M1737.539 962.519c-5.805 11.107-27.434 20.712-36.453 24.242.102-.571.205-1.142.302-1.701 1.457-8.243 2.715-15.325 2.715-15.325l26.432-13.174c5.842-.09 9.399 1.387 7.004 5.958z"/><path style="fill:#ffb27d" d="M1691.258 968.188s47.686 14.876 56.492-14.963c8.807-29.839 20.893-48.015-9.181-58.774-30.074-10.76-39.377-1.127-44.739 8.118-5.362 9.244-14.749 60.98-2.572 65.619z"/><path style="fill:#163560" d="M1695.703 899.693s3.041 34.723 10.223 33.216c7.18-1.508 13.692-2.626 12.642 7.841-1.052 10.467-11.01 22.554 11.121 24.405 22.13 1.852 53.943-55.222 47.864-66.026-17.541-31.179-107.203-37.472-81.85.564z"/><path style="fill:#dd6c3a" d="M1660.366 1226.541c1.039-24.124 2.622-61.817 2.827-64.763 0-.051.017-.103.017-.152l80.952-48.401s3.133 112.992-83.796 113.316z"/><path style="fill:#ffb27d" d="M1596.02 1125.255s-16.453-11.13-19.573-12.099c-3.12-.97-13.351-2.021-13.826-1.215-.475.806-1.876 3.273-.088 4.109s4.013.543 3.345 1.127-7.395-2.617-8.945.812c-1.551 3.43-2.916 15.18 4.975 18.741 7.892 3.563 27.37.344 28.775.753 11.911 3.462 5.337-12.228 5.337-12.228z"/><path style="fill:#f78248" d="M1595.867 1122.246s80.297 13.651 87.411 10.187c11.357-5.529-4.407-86.998-4.407-86.998s-.676-18.464 20.891-22.818c18.742-3.784 36.823 10.255 36.823 10.255s16.445 14.714 14.344 31.035c-4.657 36.179-11.901 109.761-36.1 121.039-31.21 14.548-121.522-40.342-121.522-40.342s-3.007-3.682-2.579-10.521c.377-6.032 5.139-11.837 5.139-11.837z"/><path style="fill:#ffb27d" d="M1541.911 926.687s-5.139-10.217-5.961-12.134c-.822-1.917 1.18-1.504 3.157-.434 1.979 1.069 4.675 6.999 7.726 6.283 2.422-.567-4.922 6.285-4.922 6.285z"/></g><g><path style="fill:#2b478b" d="M862.903 1628.178c0 1.457.086 2.904.269 4.313a35.3 35.3 0 0 0 4.025 12.612 35.47 35.47 0 0 0 6.066 8.099c6.412 6.401 15.248 10.36 25.022 10.36h497.648c19.542 0 35.394-15.843 35.394-35.384 0-9.775-3.958-18.621-10.37-25.023-6.402-6.411-15.247-10.369-25.023-10.369H898.286c-19.541-.001-35.383 15.841-35.383 35.392zM900.861 1586.383h170.626c2.986 0 5.431-2.443 5.431-5.431 0-2.987-2.444-5.431-5.431-5.431H900.861c-2.986 0-5.43 2.443-5.43 5.431.001 2.987 2.444 5.431 5.43 5.431z"/><path transform="rotate(-180 919.533 1589.586)" style="fill:#233862" d="M910.286 1586.383h18.494v6.406h-18.494z"/><path style="fill:#233862" d="M867.197 1645.103a35.47 35.47 0 0 0 6.066 8.099c6.412 6.401 15.248 10.36 25.022 10.36h105.412v-18.459h-136.5z"/><path style="fill:#f99746" d="M1497.197 1617.809v20.729c0 2.271-.306 4.476-.872 6.564-2.875 10.639-12.594 18.459-24.141 18.459H953.797c-11.548 0-21.266-7.82-24.141-18.459a25.047 25.047 0 0 1-.873-6.564v-20.729c0-13.82 11.194-25.023 25.014-25.023h518.388c13.819-.001 25.012 11.202 25.012 25.023z"/><path style="fill:#ef873a" d="M1496.325 1645.103c-2.875 10.639-12.594 18.459-24.141 18.459H953.797c-11.548 0-21.266-7.82-24.141-18.459h566.669z"/><path style="fill:#8c9df4" d="M1445.712 1628.303c0 10.992 3.996 20.815 10.293 27.323.144.144.278.288.422.432 4.868 4.849 11.041 7.753 17.759 7.753 10.494 0 36.505-15.833 52.625-26.346 8.03-5.243 13.608-9.162 13.608-9.162s-5.578-3.921-13.608-9.162c-16.12-10.523-42.131-26.355-52.625-26.355-3.038 0-5.961.594-8.712 1.687-4.629 1.859-8.75 5.157-11.999 9.47-3.584 4.733-6.133 10.694-7.207 17.316-.01.077-.028.154-.028.23a43.916 43.916 0 0 0-.528 6.814z"/><path style="fill:#6980e2" d="M1445.712 1628.303c0 10.992 3.996 20.815 10.293 27.323l79.785-27.448-89.551-6.689a44.04 44.04 0 0 0-.527 6.814z"/><path style="fill:#9fb1ff" d="m1453.475 1603.941 79.594 21.735-67.595-31.205c-4.629 1.86-8.75 5.158-11.999 9.47z"/><path style="fill:#182d4c" d="M1521.615 1628.303c0 4.227 2.166 7.829 5.195 9.162 8.03-5.243 13.608-9.162 13.608-9.162s-5.578-3.921-13.608-9.162c-3.029 1.322-5.195 4.925-5.195 9.162z"/></g><path style="fill:#2e3552" d="M2572.982 1670.474H265.456a2.74 2.74 0 0 1-2.731-2.731v-1.201a2.738 2.738 0 0 1 2.731-2.73h2307.526a2.738 2.738 0 0 1 2.73 2.73v1.201a2.738 2.738 0 0 1-2.73 2.731z"/></svg>