<svg xmlns="http://www.w3.org/2000/svg" viewBox="0 0 750 500" style="enable-background:new 0 0 750 500" xml:space="preserve"><path style="fill:#fff" d="M0 0h750v500H0z"/><path style="fill:#dbdfff" d="M342.271 410.084c-3.994 18.284-9.848 29.997-9.848 29.997h117.095s-5.853-11.713-9.848-29.997h-97.399z"/><path style="fill:#b7c2fb" d="M442.763 422.463a222.315 222.315 0 0 1-3.093-12.379h-97.4a222.537 222.537 0 0 1-3.093 12.379h103.586z"/><path style="fill:#6252d7" d="M462.865 440.081H319.076c-5.256 0-9.517 4.501-9.517 10.053h162.824c0-5.552-4.262-10.053-9.518-10.053z"/><path style="fill:#dbdfff" d="M571.964 410.084H209.978c-5.595 0-10.131-4.536-10.131-10.131v-261.29c0-5.595 4.536-10.131 10.131-10.131h361.986c5.595 0 10.131 4.536 10.131 10.131v261.29c-.001 5.595-4.536 10.131-10.131 10.131z"/><path style="fill:#bfc3ce" d="M571.964 410.084H209.978c-5.595 0-10.131-4.536-10.131-10.131v-42.724h382.247v42.724c0 5.595-4.535 10.131-10.13 10.131z"/><path style="fill:#6252d7" d="M571.964 410.084H209.978c-5.595 0-10.131-4.536-10.131-10.131v-42.724h382.247v42.724c0 5.595-4.535 10.131-10.13 10.131z"/><path style="fill:#0f1e36" d="M534.203 357.229v52.855h37.761c5.595 0 10.131-4.536 10.131-10.131v-42.724h-47.892z"/><path transform="rotate(90 390.972 243.393)" style="fill:#fff" d="M289.399 65.556h203.145v355.673H289.399z"/><path style="fill:#6252d7" d="M531.36 114.472a2.544 2.544 0 0 0 2.359-1.598 25.979 25.979 0 0 0 1.857-9.678c0-13.721-10.61-24.961-24.074-25.971a2.502 2.502 0 0 1-2.229-1.849c-2.979-11.105-13.11-19.282-25.155-19.282-10.526 0-19.587 6.246-23.695 15.231-.549 1.201-1.898 1.828-3.139 1.378a21.698 21.698 0 0 0-7.407-1.304c-12.121 0-21.947 9.826-21.947 21.947 0 .234.005.467.013.699.038 1.045-.607 1.979-1.57 2.386-6.078 2.567-10.345 8.578-10.345 15.59a2.453 2.453 0 0 0 2.453 2.451H531.36z"/><path style="fill:none;stroke:#94a0ff;stroke-width:1.4173;stroke-miterlimit:10;stroke-dasharray:2,3" d="M409.048 91.013H274.502a8.038 8.038 0 0 0-8.038 8.038v18.693"/><path style="fill:#fff" d="m514.571 101.948-8.786-11.517a2.525 2.525 0 0 0-4.014 0l-8.786 11.517c-1.017 1.334-.066 3.255 1.611 3.255h2.163c.756 0 1.368.612 1.368 1.368v10.224a2.524 2.524 0 0 0 2.524 2.524h6.253a2.524 2.524 0 0 0 2.524-2.524v-10.224c0-.756.612-1.368 1.368-1.368h2.163c1.679 0 2.63-1.922 1.612-3.255z"/><path style="fill:#6252d7" d="M177.505 374.307v-19.95a4.094 4.094 0 0 0-4.094-4.094h-4.531a4.1 4.1 0 0 1-3.894-2.849 54.636 54.636 0 0 0-3.273-7.902 4.102 4.102 0 0 1 .739-4.769l3.204-3.203a4.094 4.094 0 0 0 0-5.79l-14.108-14.108a4.094 4.094 0 0 0-5.79 0l-3.203 3.203a4.102 4.102 0 0 1-4.769.739 54.777 54.777 0 0 0-7.904-3.274 4.1 4.1 0 0 1-2.849-3.894v-4.53a4.094 4.094 0 0 0-4.094-4.094h-19.95a4.094 4.094 0 0 0-4.094 4.094v4.53a4.1 4.1 0 0 1-2.849 3.894 54.565 54.565 0 0 0-7.9 3.273 4.1 4.1 0 0 1-4.769-.739l-3.203-3.203a4.094 4.094 0 0 0-5.79 0L60.275 325.75a4.094 4.094 0 0 0 0 5.79l3.203 3.202a4.102 4.102 0 0 1 .739 4.769 54.6 54.6 0 0 0-3.273 7.903 4.1 4.1 0 0 1-3.894 2.849h-4.53a4.094 4.094 0 0 0-4.094 4.094v19.95a4.094 4.094 0 0 0 4.094 4.094h4.529a4.1 4.1 0 0 1 3.894 2.849 54.636 54.636 0 0 0 3.273 7.902 4.1 4.1 0 0 1-.739 4.769l-3.203 3.203a4.094 4.094 0 0 0 0 5.79l14.107 14.107a4.094 4.094 0 0 0 5.79 0l3.203-3.203a4.102 4.102 0 0 1 4.769-.739 54.624 54.624 0 0 0 7.901 3.273 4.1 4.1 0 0 1 2.849 3.894v4.53a4.094 4.094 0 0 0 4.094 4.094h19.95a4.094 4.094 0 0 0 4.094-4.094v-4.53a4.1 4.1 0 0 1 2.849-3.894 54.552 54.552 0 0 0 7.904-3.274 4.102 4.102 0 0 1 4.769.739l3.203 3.203a4.094 4.094 0 0 0 5.79 0l14.108-14.107a4.094 4.094 0 0 0 0-5.79l-3.204-3.204a4.1 4.1 0 0 1-.739-4.768 54.636 54.636 0 0 0 3.273-7.902 4.1 4.1 0 0 1 3.894-2.849h4.531a4.092 4.092 0 0 0 4.096-4.093zm-38.781 16.06a36.432 36.432 0 0 1-51.518 0 36.427 36.427 0 0 1-10.67-25.759 36.427 36.427 0 0 1 36.429-36.429 36.433 36.433 0 0 1 36.429 36.429 36.43 36.43 0 0 1-10.67 25.759z"/><path style="fill:#fec1b2" d="M175.244 424.585c1.216.121 7.278-.073 9.37.098 0 0-.453 8.538.225 10.62 1.363 4.188 7.044 9.804 7.044 9.804s-.704 2.578-9.284 1.18c-5.59-.911-7.915-.173-7.915-.173 1.331-3.713 1.097-12.907.56-21.529z"/><path style="fill:#0f1e36" d="M174.567 443.379c-.627 2.808-1.182 5.937-.688 6.47h21.563c.621-.354-1.852-3.557-4.296-6.47h-16.579zM161.409 324.195s5.065 45.856 5.512 53.34c.447 7.484 7.977 59.794 7.977 59.794s11.164.255 11.164 0 2.425-59.132 3.789-77.574c.849-11.476 1.53-33.186 0-47.528-.929-8.705-1.298-24.08-1.298-24.08l-16.945 4.495-10.199 31.553z"/><path style="fill:#fec1b2" d="M152.182 438.623c-.499-1.533-1.356-6.244-1.284-10.582h-8.253c-.093 7.713-1.371 15.913-1.577 16.553 0 0 1.706.782 7.296 1.694 8.58 1.399 9.505.416 9.505.416s-4.323-3.893-5.687-8.081z"/><path style="fill:#0f1e36" d="M140.502 443.379c-.658 2.725-1.285 5.914-.769 6.47h20.882c.647-.369-1.851-3.636-4.201-6.47h-15.912zM138.507 296.37s-1.511 23.979-1.617 48.927c-.106 24.947 4.431 92.07 4.431 92.07h11.915s5.99-64.628 10.456-80.665c4.466-16.038 14.379-64.044 14.379-64.044l-39.564 3.712z"/><path style="fill:#feb8a6" d="M169.924 201.041c-.734-2.054-.642-5.953-.557-7.683a157.96 157.96 0 0 0-1.551-.072c-3.177-.125-6.346-.188-9.513-.336a473.409 473.409 0 0 1-1.565 7.208c-.738 3.175-1.379 5.709-1.66 5.981-.786.777-10.651 3.087-10.651 3.087s8.525 8.796 14.641 8.855c6.107.068 18.835-6.942 18.835-6.942s-3.456-3.641-5.835-6.748c-1.028-1.33-1.853-2.554-2.144-3.35z"/><path style="fill:#ea7d77" d="M169.367 193.358a157.96 157.96 0 0 0-1.551-.072c-3.177-.125-6.346-.188-9.513-.336a473.409 473.409 0 0 1-1.565 7.208c.952.573 2.117 1.049 3.447 1.583 2.719 1.078 7.087 2.078 11.884 2.651-1.029-1.33-1.854-2.553-2.146-3.35-.733-2.055-.641-5.953-.556-7.684z"/><path style="fill:#feb8a6" d="M169.972 167.428c1.675 1.166 6.091 5.288 6.976 8.668.885 3.379.884 11.239.653 14.581-.32 4.628-1.41 8.705-4.33 10.81-2.92 2.105-8.964-.397-11.993-2.875-3.029-2.478-3.769-6.657-4.918-10.456-1.149-3.799-.784-8.096-.784-8.096s-2.17-6.236.786-9.16c11.33-11.209 15.628-5.673 13.61-3.472z"/><path style="fill:#0f1e36" d="M174.144 173.444c-8.504 1.973-11.323 1.085-14.722.577 0 0 1.248 3.234 1.33 5.808.082 2.574-2.546 7.289-4.772 6.794 0 0 2.291 4.541 2.38 5.996.141 2.331-1.416 6.629-1.416 6.629s-4.992-7.861-7.121-10.827c-2.128-2.966-6.598-14.848 1.898-18.206 0 0 1.04-8.241 14.634-7.304 8.38.577 12.554 6.788 12.554 6.788s-1.786 3.054-4.765 3.745z"/><path style="fill:#feb8a6" d="M159.667 186.478c-.283-1.429-1.975-5.801-5.102-4.937-3.136.866-1.33 5.977.243 7.899 1.427 1.743 3.542 1.646 3.542 1.646s1.742-2.465 1.317-4.608z"/><path style="fill:#ffbda6" d="M271.674 225.242c-1.017.087-4.433.633-4.433.633s3.182-.831 3.674-1.389-.186-1.419-.968-1.346c-.782.072-2.542.44-4.866.871-2.324.432-9.73 1.593-9.73 1.593s3.44-1.598 3.991-2.19c.551-.592.832-1.792-.196-1.775-1.028.017-6.018 2.275-7.7 2.985-1.682.71-4.247 3.764-5.494 3.789-.442.009-3.487.162-7.325.357.461 2.541.968 5.075 1.503 7.603 3.137-.552 5.485-.957 5.604-.955.373.008 3.065.405 5.621.332 2.557-.073 9.683-1.352 11.119-1.448 1.437-.096 4.494-.21 4.675-.799.182-.59-.003-1.339-1.158-1.275-1.155.064-4.403-.42-4.403-.42s6.147-.984 7.717-1.279c1.57-.296 1.914-1.021 1.441-1.587-.473-.565-.797-.294-2.623-.244-1.827.051-6.484.559-6.484.559s4.147-.823 5.936-1.127c1.789-.304 5.112-.816 5.421-1.453.31-.637-.304-1.522-1.322-1.435z"/><path style="fill:#0f1e36" d="m176.604 215.082-1.979-6.106s5.599 1.407 8.444 3.13c2.845 1.723 14.935 10.372 27.158 17.082l33.012-.652s-1.571 6.598-1.29 9.916c0 0-16.481 2.636-27.53 3.41-4.393.308-8.746-.464-9.615-.615-12.331-2.143-31.615-12.898-31.615-12.898l3.415-13.267z"/><path style="fill:#dbdfff" d="M552.084 318.451H229.623a5.123 5.123 0 0 1-5.123-5.123V170.652a5.123 5.123 0 0 1 5.123-5.123h322.461a5.123 5.123 0 0 1 5.123 5.123v142.676a5.122 5.122 0 0 1-5.123 5.123z"/><path style="fill:#6252d7" d="M557.208 176.804H224.5v-6.153a5.123 5.123 0 0 1 5.123-5.123h322.461a5.123 5.123 0 0 1 5.123 5.123v6.153z"/><path style="fill:#fff" d="M529.372 171.337c0 1.787-1.511 3.235-3.374 3.235-1.863 0-3.374-1.449-3.374-3.235 0-1.787 1.511-3.235 3.374-3.235 1.863 0 3.374 1.449 3.374 3.235z"/><path style="fill:#f1f0ff" d="M540.951 171.337c0 1.787-1.511 3.235-3.374 3.235-1.863 0-3.374-1.449-3.374-3.235 0-1.787 1.511-3.235 3.374-3.235 1.863 0 3.374 1.449 3.374 3.235z"/><path style="fill:#b7c2fb" d="M552.53 171.337c0 1.787-1.511 3.235-3.374 3.235-1.863 0-3.374-1.449-3.374-3.235 0-1.787 1.511-3.235 3.374-3.235 1.864 0 3.374 1.449 3.374 3.235z"/><text transform="translate(273.077 264.558)" style="fill:#fff;font-family:'FredokaOne-Regular';font-size:76.344px">WWW</text><path style="fill:#ff423e" d="M152.636 206.138s-15.829 4.689-18.1 9.015c-3.566 6.794-.87 26.268-.965 34.589-.072 6.251 4.3 54.284 4.3 54.284 22.397 4.495 49.992-.241 51.98-4.233 1.692-3.398-1.512-51.491-1.701-57.126-.273-8.14-4.027-30.282-4.027-30.282l-8.434-4.438-3.739 3.075-19.314-4.884z"/><path style="fill:#0f1e36" d="m155.212 204.21 16.738 6.811-5.423 5.632-13.891-10.515zM171.95 211.021l4.517 4.552.137-7.373-3.241-1.809z"/><g><path style="fill:#feb8a6" d="m176.338 251.839 10.192-1.945s23.034 5.12 26.416 3.968c3.889-1.324 7.219-2.68 9.196-4.266a47.256 47.256 0 0 1 1.823-1.399l-.16 4.639s2.727 1.039 6.674 1.581c3.461.475 5.184.608 6.562.654 1.652.055 3.468.181 2.927 1.474-.5 1.197-1.474 1.197-1.474 1.197s1.814 1.115-.103 2.197-1.699.299-1.699.299 1.332 2.327-.688 2.598c-2.02.271-.885 1.524-3.579 1.716-1.658.118-17.766-1.389-22.778-1.788-3.129-.249-8.755-.491-11.949-.456-8.442.092-13.105.52-13.105.52l-8.255-10.989z"/><path style="fill:#ff423e" d="M136.773 212.579c-4.103 2.742-4.533 10.041.301 18.921 5.232 9.611 13.933 18.151 21.739 24.933 2.73 2.372 6.03 3.599 9.401 4.784 2.491.875 31.83 2.491 39.053 2.775 0 0-2.813-5.403.325-10.431 0 0-29.275-6.182-33.833-7.664 0 0-13.377-12.377-18.419-19.624-5.698-8.19-13.177-17.296-18.567-13.694z"/><path style="fill:#0f1e36" d="M136.773 212.579c-4.103 2.742-4.533 10.041.301 18.921 5.232 9.611 13.933 18.151 21.739 24.933 2.73 2.372 6.03 3.599 9.401 4.784 2.491.875 31.83 2.491 39.053 2.775 0 0-2.813-5.403.325-10.431 0 0-29.275-6.182-33.833-7.664 0 0-13.377-12.377-18.419-19.624-5.698-8.19-13.177-17.296-18.567-13.694z"/></g><g><path style="fill:#ca6772" d="M177.392 185.463s-.512.635-1.216.365c0 0 .73 2.046 1.216-.365zM166.508 187.126s1.032.486 2.28.025c-.001 0-1.03 2.225-2.28-.025z"/><path style="fill:none;stroke:#ea7d77;stroke-width:.7087;stroke-miterlimit:10" d="M170.964 193.734c1.8 1.158 4.519 1.122 5.829-.689"/><path style="fill:#0f1e36" d="M169.68 180.819c.42.032 1.425-.171 1.189-1.079 0 0-1.336-.713-3.244-.028-.76.273-1.683.813-2.37 1.663 0 0 1.966-.741 4.425-.556zM175.678 179.942c-.217.107-.775.091-.775-.839 0 0 .608-.939 1.708-.615.438.129 1 .49 1.479 1.196 0 0-1.14-.368-2.412.258z"/><path style="fill:none;stroke:#ea7d77;stroke-width:.7087;stroke-miterlimit:10" d="M173.255 185.296s1.001 2.518 1.812 3.839l-1.361.911"/><path style="fill:#0f1e36" d="M169.673 183.639c.093.723-.388 1.361-1.074 1.424-.686.063-1.317-.473-1.41-1.196-.093-.723.388-1.361 1.074-1.423.686-.064 1.317.472 1.41 1.195zM177.296 182.488c.05.723-.21 1.361-.58 1.424-.371.063-.712-.473-.762-1.196-.05-.723.21-1.361.58-1.424.371-.063.712.472.762 1.196z"/></g><g><path style="fill:#fff" d="M473.128 297.971H295.3c-5.426 0-9.824-4.398-9.824-9.824s4.398-9.824 9.824-9.824h177.828c5.426 0 9.824 4.398 9.824 9.824s-4.399 9.824-9.824 9.824z"/><path style="fill:#dbdfff" d="M465.099 283.804a4.844 4.844 0 1 0 6.85 6.849 4.844 4.844 0 0 0-6.85-6.849zm5.652 5.652a3.15 3.15 0 1 1-4.454-4.454 3.15 3.15 0 0 1 4.454 4.454z"/><path style="fill:#dbdfff" d="M474.73 293.435a1.036 1.036 0 0 1-1.464 0l-2.476-2.476 1.464-1.464 2.476 2.476c.405.404.405 1.06 0 1.464z"/></g><g><circle transform="rotate(-76.714 85.807 182.449)" style="fill:#ff6238" cx="85.795" cy="182.438" r="24.311"/><path style="fill:#fff" d="M95.008 180.237h-7.47v-7.471a2.041 2.041 0 0 0-4.082 0v7.471h-7.47a2.041 2.041 0 0 0 0 4.082h7.47v7.47a2.041 2.041 0 0 0 4.082 0v-7.47h7.47a2.041 2.041 0 0 0 0-4.082z"/></g><g><path style="fill:#dbdfff" d="M109.874 227.086H61.717a7.945 7.945 0 0 0-7.945 7.945v25.193a7.945 7.945 0 0 0 7.945 7.945H97.22c1.236 3.039 6.645 7.637 12.886 9.322 0 0-3.036-4.959-2.988-9.322h2.756a7.945 7.945 0 0 0 7.945-7.945v-25.193a7.945 7.945 0 0 0-7.945-7.945z"/><path style="fill:#fff" d="M74.882 247.984a3.097 3.097 0 1 1-6.194 0 3.097 3.097 0 0 1 6.194 0zM87.9 247.984a3.097 3.097 0 1 1-6.194 0 3.097 3.097 0 0 1 6.194 0zM100.919 247.984a3.097 3.097 0 1 1-6.194 0 3.097 3.097 0 0 1 6.194 0z"/></g><g><path style="fill:#6252d7" d="M542.327 443.861V198.873a6.279 6.279 0 0 1 6.279-6.278H676.45a6.278 6.278 0 0 1 6.278 6.278V443.86a6.278 6.278 0 0 1-6.278 6.278H548.605a6.277 6.277 0 0 1-6.278-6.277z"/><path style="fill:#fff" d="M672.746 200.289h-31.292a6.456 6.456 0 0 0-5.979 4.02 8.761 8.761 0 0 1-8.113 5.454h-29.867a8.76 8.76 0 0 1-8.113-5.454 6.456 6.456 0 0 0-5.979-4.02h-31.094a4.59 4.59 0 0 0-4.59 4.59v214.422a4.59 4.59 0 0 0 4.59 4.59h120.437a4.59 4.59 0 0 0 4.59-4.59V204.88a4.59 4.59 0 0 0-4.59-4.591z"/><circle style="fill:#dbdfff" cx="611.743" cy="301.983" r="32.647"/><path style="fill:none;stroke:#fff;stroke-width:4.252;stroke-miterlimit:10" d="M612.134 318.925c-9.357 0-16.941-7.585-16.941-16.941 0-9.357 7.585-16.941 16.941-16.941s16.941 7.585 16.941 16.941c0 2.339-.474 4.568-1.331 6.594"/><path style="fill:#fff" d="m634.526 309.97-10.15 6.74-2.481-12.015z"/><path style="fill:#6252d7" d="M649.454 371.124h-70.759a4.131 4.131 0 1 1 0-8.262h70.759a4.132 4.132 0 0 1 0 8.262z"/><path style="fill:#dbdfff" d="M622.932 371.124h-44.237a4.131 4.131 0 1 1 0-8.262h44.237a4.13 4.13 0 1 1 0 8.262z"/></g><path style="fill:#fff" d="M653.585 248.235h45.201v63.251h-45.201z"/><g><path style="fill:#ff6238" d="M697.816 275.228h-30.265a5.356 5.356 0 0 1-5.356-5.356v-30.265a5.356 5.356 0 0 1 5.356-5.356h30.265a5.356 5.356 0 0 1 5.356 5.356v30.265a5.356 5.356 0 0 1-5.356 5.356z"/><path style="fill:#fff" d="M694.181 266.329c-1.339-5.106-5.971-8.879-11.498-8.879-5.526 0-10.159 3.772-11.498 8.879h22.996zM688.272 250.112a5.589 5.589 0 1 1-11.177 0 5.589 5.589 0 0 1 11.177 0z"/></g><g><path style="fill:#6252d7" d="M697.816 327.1h-30.265a5.356 5.356 0 0 1-5.356-5.356v-30.265a5.356 5.356 0 0 1 5.356-5.356h30.265a5.356 5.356 0 0 1 5.356 5.356v30.265a5.356 5.356 0 0 1-5.356 5.356z"/><path style="fill:#fff" d="M694.181 318.201c-1.339-5.106-5.971-8.879-11.498-8.879-5.526 0-10.159 3.772-11.498 8.879h22.996zM688.272 301.983a5.589 5.589 0 1 1-11.177 0 5.589 5.589 0 0 1 11.177 0z"/></g><g><path style="fill:#4db4a7" d="M242.673 148.586H141.235a6.648 6.648 0 0 1-6.648-6.648V70.663a6.648 6.648 0 0 1 6.648-6.648h101.438a6.648 6.648 0 0 1 6.648 6.648v71.276a6.648 6.648 0 0 1-6.648 6.647z"/><path style="fill:#fff" d="m147.28 116.149 21.624-26.573a2.628 2.628 0 0 1 3.894-.202l29.68 29.595a2.628 2.628 0 0 0 3.636.072l13.685-12.604a2.628 2.628 0 0 1 3.772.218l13.238 15.371c.411.477.637 1.086.637 1.715v10.396a2.628 2.628 0 0 1-2.628 2.628h-85.5a2.628 2.628 0 0 1-2.628-2.628v-16.33c0-.604.209-1.189.59-1.658z"/><circle transform="rotate(-45.001 203.297 93.265)" style="fill:#fff" cx="203.297" cy="93.263" r="7.796"/></g><g><path style="fill:#ffb600" d="m657.319 74.495 16.92 16.551v80.087a7.103 7.103 0 0 1-7.103 7.103h-61.524a7.103 7.103 0 0 1-7.103-7.103V81.598a7.103 7.103 0 0 1 7.103-7.103h51.707z"/><path style="fill:#dbdfff" d="M674.239 91.046h-16.92V74.495z"/><path style="fill:none;stroke:#fff;stroke-width:2;stroke-linecap:round;stroke-linejoin:round;stroke-miterlimit:10" d="M658.294 110.846h-43.008M658.294 125.805h-43.008M658.294 140.765h-43.008M658.294 155.724h-29.918"/></g><path style="fill:none;stroke:#0f1e36;stroke-miterlimit:10" d="M81.707 450.134h622.27"/></svg>